<?xml version="1.0" encoding="utf-8"?>
<!-- Generator: Adobe Illustrator 16.0.0, SVG Export Plug-In . SVG Version: 6.00 Build 0)  -->
<!DOCTYPE svg PUBLIC "-//W3C//DTD SVG 1.1//EN" "http://www.w3.org/Graphics/SVG/1.1/DTD/svg11.dtd">
<svg version="1.1" id="Layer_1" xmlns="http://www.w3.org/2000/svg" xmlns:xlink="http://www.w3.org/1999/xlink" x="0px" y="0px"
	 width="512px" height="512px" viewBox="0 0 512 512" enable-background="new 0 0 512 512" xml:space="preserve">
<path fill="#FFFFFF" d="M231.24,99.122c27.325,0,49.546-22.221,49.546-49.545c0-27.325-22.221-49.546-49.546-49.546
	c-27.321,0-49.545,22.221-49.545,49.546C181.696,76.901,203.919,99.122,231.24,99.122z M231.24,16.547
	c18.217,0,33.03,14.813,33.03,33.03s-14.813,33.03-33.03,33.03c-18.213,0-33.03-14.813-33.03-33.03S213.028,16.547,231.24,16.547z"
	/>
<path fill="#FFFFFF" d="M357.318,316.436L357.318,316.436c-2.436,2.576-6.233,5.641-10.495,5.641s-8.06-3.064-10.568-5.718
	c-6.688-7.067-14.467-10.798-22.486-10.798s-15.797,3.738-22.526,10.843c-2.436,2.576-6.242,5.657-10.504,5.657
	s-8.068-3.081-10.503-5.665c-13.395-14.157-31.619-14.157-45.014-0.009l-0.174,0.189c-2.443,2.545-6.177,5.476-10.338,5.476
	c-4.258-0.008-8.068-3.08-10.503-5.665l0,0c0.377,0.398,0,0,0,0c-7.956-7.013-20.519,4.175-8.466,14.694
	c5.743,5.013,12.313,7.48,18.969,7.486c8.027,0,15.806-3.742,22.503-10.818l0.189-0.197c2.443-2.544,6.169-5.468,10.322-5.468
	c4.27,0,8.076,3.081,10.511,5.665c6.697,7.068,14.476,10.818,22.503,10.826c8.028,0,15.806-3.741,22.535-10.85
	c2.443-2.577,6.241-5.649,10.495-5.649s8.061,3.064,10.572,5.714c6.685,7.067,14.467,10.802,22.482,10.802
	c6.469,0,12.781-2.43,18.49-7.078c0.645-0.524,1.286-1.073,1.91-1.659C379.25,318.562,364.75,308.312,357.318,316.436z"/>
<path fill="#FFFFFF" d="M468.818,383.452L468.818,383.452c-2.436,2.576-6.233,5.641-10.495,5.641s-8.06-3.064-10.568-5.718
	c-6.688-7.067-14.467-10.798-22.486-10.798s-15.797,3.738-22.526,10.843c-2.436,2.576-6.242,5.657-10.504,5.657
	s-8.068-3.081-10.503-5.665c-13.395-14.157-31.619-14.157-45.014-0.009l-0.174,0.189c-2.443,2.545-6.177,5.476-10.338,5.476
	c-4.258-0.008-8.068-3.08-10.503-5.665l0,0c0.377,0.398,0,0,0,0c-7.956-7.013-20.519,4.175-8.466,14.694
	c5.742,5.013,12.312,7.48,18.969,7.486c8.027,0,15.806-3.742,22.503-10.818l0.189-0.197c2.443-2.544,6.169-5.468,10.322-5.468
	c4.27,0,8.076,3.081,10.511,5.665c6.697,7.068,14.476,10.818,22.503,10.826c8.028,0,15.806-3.741,22.535-10.85
	c2.443-2.577,6.241-5.649,10.495-5.649s8.061,3.064,10.572,5.714c6.685,7.067,14.467,10.802,22.482,10.802
	c6.469,0,12.781-2.43,18.49-7.078c0.645-0.524,1.286-1.073,1.91-1.659C490.75,385.578,476.25,375.328,468.818,383.452z"/>
<path fill="#FFFFFF" d="M485.235,257.859L485.235,257.859c-2.436,2.576-6.233,5.641-10.495,5.641s-8.06-3.064-10.568-5.718
	c-6.688-7.067-14.467-10.798-22.486-10.798s-15.797,3.738-22.526,10.843c-2.436,2.576-6.242,5.657-10.504,5.657
	s-8.068-3.081-10.503-5.665c-13.395-14.157-31.619-14.157-45.014-0.009L352.964,258c-2.443,2.545-6.177,5.476-10.338,5.476
	c-4.258-0.008-8.068-3.08-10.503-5.665l0,0c0.377,0.398,0,0,0,0c-7.956-7.013-20.519,4.175-8.466,14.694
	c5.742,5.013,12.312,7.48,18.969,7.486c8.027,0,15.806-3.742,22.503-10.818l0.189-0.197c2.443-2.544,6.169-5.468,10.322-5.468
	c4.27,0,8.076,3.081,10.511,5.665c6.697,7.068,14.476,10.818,22.503,10.826c8.028,0,15.806-3.741,22.535-10.85
	c2.443-2.577,6.241-5.649,10.495-5.649s8.061,3.064,10.572,5.714c6.685,7.067,14.467,10.802,22.482,10.802
	c6.469,0,12.781-2.43,18.49-7.078c0.645-0.524,1.286-1.073,1.91-1.659C507.167,259.985,492.667,249.735,485.235,257.859z"/>
<g>
	<path fill="#FFFFFF" d="M507.696,488.237c-3.383-1.851-76.346-40.812-204.185-49.018l-17.133-42.824h-95.978l-32.89-98.672
		l95.067-33.335c9.756-3.222,13.466-12.576,9.256-20.889c-8.099-15.991-22.565-34.058-35.755-45.287h273.755v-0.004
		c4.524-0.042,8.181-3.719,8.181-8.253s-3.656-8.212-8.181-8.253v-0.004h-9.585l-86.128-72.875
		c-13.681-11.584-31.087-17.959-49.017-17.959c-17.927,0-35.333,6.375-49.018,17.959l-86.124,72.875h-18.431
		c-28.159-14.955-61.585-20.265-94.475-13.33c0.138-1.057,0.319-2.097,0.319-3.186c0-13.66-11.112-24.772-24.773-24.772
		c-13.656,0-24.772,11.112-24.772,24.772c0,7.439,3.362,14.036,8.564,18.58c-3.351,1.923-6.564,4.012-9.71,6.193H8.268
		c-0.003,0-0.006,0-0.01,0c-4.561,0-8.258,3.697-8.258,8.257s3.697,8.257,8.257,8.257v0h28.898
		c-10.229,10.495-18.794,22.592-25.12,36.159c-12.475,26.765-12.97,61.764-1.358,90.133c2.015,4.924,6.489,14.403,19.053,9.774
		l87.542-30.701l28.191,84.56h-32.369l-22.761-60.71h-0.001c-1.18-3.145-4.206-5.387-7.762-5.387c-4.583,0-8.298,3.716-8.298,8.299
		c0,1.4,0.351,2.718,0.963,3.875L98.692,405l-15.499,54.259C33.76,472.496,6.379,487.12,4.33,488.228l-4.302,2.351v21.423h511.97
		v-21.423L507.696,488.237z M316.756,121.424c10.705-9.057,24.32-14.044,38.349-14.044c14.031,0,27.647,4.987,38.348,14.044
		l71.229,60.274H245.526L316.756,121.424z M275.198,412.911l10.141,25.349c-7.334-0.29-14.874-0.436-22.535-0.512l-4.972-24.837
		H275.198z M245.006,249.541l-52.973,18.579c-16.133-36.796-44.449-66.25-80.955-83.732
		C165.652,173.134,221.927,199.971,245.006,249.541z M82.604,156.926c4.553,0,8.258,3.705,8.258,8.257
		c0,4.549-3.705,8.258-8.258,8.258c-4.548,0-8.257-3.709-8.257-8.258C74.347,160.631,78.056,156.926,82.604,156.926z
		 M68.427,311.465l-44.265,15.521C16.4,301,15.414,274.487,27.006,249.605c10.564-22.664,28.043-40.856,50.058-52.808
		C60.557,233.175,57.642,273.354,68.427,311.465z M84.003,306.006c-9.531-34.575-6.625-71.004,8.693-103.861l3.137-6.733
		l6.729,3.141c33.212,15.483,59.028,41.938,73.875,75.036L84.003,306.006z M132.871,306.368l9.056-3.177l31.067,93.204h-10.117
		L132.871,306.368z M147.403,412.911h93.583l4.979,24.869c-39.15,0.521-73.995,4.016-104.195,8.959L147.403,412.911z
		 M113.607,412.911h17.06l-6.153,36.9c-7.983,1.536-15.6,3.157-22.833,4.839L113.607,412.911z M450.399,495.486
		c0.006-0.121,0.019-0.24,0.019-0.363c0-4.672-3.787-8.459-8.459-8.459c-4.671,0-8.459,3.787-8.459,8.459
		c0,0.123,0.013,0.242,0.019,0.363h-29.075c0.005-0.121,0.019-0.24,0.019-0.363c0-4.672-3.787-8.459-8.459-8.459
		s-8.459,3.787-8.459,8.459c0,0.123,0.014,0.242,0.019,0.363h-28.19c0.006-0.121,0.019-0.24,0.019-0.363
		c0-4.672-3.786-8.459-8.459-8.459c-4.671,0-8.459,3.787-8.459,8.459c0,0.123,0.013,0.242,0.019,0.363h-30.424
		c0.006-0.121,0.019-0.24,0.019-0.363c0-4.672-3.788-8.459-8.459-8.459s-8.459,3.787-8.459,8.459c0,0.123,0.013,0.242,0.019,0.363
		h-30.828c0.006-0.121,0.019-0.24,0.019-0.363c0-4.672-3.788-8.459-8.459-8.459c-4.672,0-8.459,3.787-8.459,8.459
		c0,0.123,0.013,0.242,0.019,0.363h-29.745c0.005-0.121,0.019-0.24,0.019-0.363c0-4.672-3.787-8.459-8.459-8.459
		c-4.671,0-8.459,3.787-8.459,8.459c0,0.123,0.013,0.242,0.019,0.363h-29.075c0.005-0.121,0.019-0.24,0.019-0.363
		c0-4.672-3.788-8.459-8.459-8.459s-8.458,3.787-8.458,8.459c0,0.123,0.013,0.242,0.019,0.363h-28.191
		c0.005-0.121,0.019-0.24,0.019-0.363c0-4.672-3.787-8.459-8.459-8.459c-4.671,0-8.459,3.787-8.459,8.459
		c0,0.123,0.013,0.242,0.019,0.363H79.4c0.005-0.121,0.019-0.24,0.019-0.363c0-4.672-3.788-8.459-8.459-8.459
		s-8.459,3.787-8.459,8.459c0,0.123,0.013,0.242,0.019,0.363H27.906c32.006-13.543,111.816-41.288,228.107-41.288
		c115.998,0,195.952,27.745,228.06,41.288H450.399z"/>
	<circle fill="#FFFFFF" cx="280.126" cy="476.582" r="8.459"/>
	<circle fill="#FFFFFF" cx="327.126" cy="476.582" r="8.459"/>
	<circle fill="#FFFFFF" cx="371.126" cy="476.582" r="8.459"/>
	<circle fill="#FFFFFF" cx="232.626" cy="476.582" r="8.459"/>
	<circle fill="#FFFFFF" cx="187.126" cy="476.582" r="8.459"/>
	<circle fill="#FFFFFF" cx="142.126" cy="476.582" r="8.459"/>
</g>
</svg>
