<?xml version="1.0" encoding="utf-8"?>
<!-- Generator: Adobe Illustrator 16.0.0, SVG Export Plug-In . SVG Version: 6.00 Build 0)  -->
<!DOCTYPE svg PUBLIC "-//W3C//DTD SVG 1.1//EN" "http://www.w3.org/Graphics/SVG/1.1/DTD/svg11.dtd">
<svg version="1.1" id="Layer_1" xmlns="http://www.w3.org/2000/svg" xmlns:xlink="http://www.w3.org/1999/xlink" x="0px" y="0px"
	 width="512px" height="512px" viewBox="0 0 512 512" enable-background="new 0 0 512 512" xml:space="preserve">
<g>
	<g>
		<path fill="#FFFFFF" stroke="#FFFFFF" stroke-miterlimit="10" d="M132.497,105.239c-0.396-15.898-13.451-28.708-29.442-28.708
			c-10.958,0-20.896,6.151-25.948,15.532c-2.962-1.265-6.171-1.934-9.419-1.934c-9.411,0-17.769,5.451-21.665,13.702
			c-0.186-0.007-0.371-0.009-0.556-0.009c-9.667,0-17.532,7.865-17.532,17.532c0,9.667,7.865,17.533,17.532,17.533h80.135
			c9.667,0.001,17.532-7.865,17.532-17.532C143.133,114.23,138.792,107.945,132.497,105.239z M125.6,128.851H45.467
			c-4.134,0-7.497-3.363-7.497-7.498c0-4.134,3.363-7.498,7.497-7.498c0.786,0,1.562,0.123,2.306,0.363
			c1.318,0.426,2.758,0.288,3.972-0.384c1.214-0.673,2.097-1.817,2.437-3.163c1.561-6.188,7.115-10.509,13.506-10.509
			c3.205,0,6.22,1.061,8.718,3.067c1.312,1.055,3.064,1.381,4.668,0.869c1.604-0.512,2.845-1.794,3.303-3.414
			c2.352-8.314,10.032-14.121,18.679-14.121c10.706,0,19.416,8.711,19.416,19.417c0,0.76-0.049,1.536-0.15,2.372
			c-0.33,2.723,1.588,5.206,4.307,5.575c3.689,0.502,6.473,3.694,6.473,7.425C133.098,125.489,129.735,128.851,125.6,128.851z"/>
	</g>
</g>
<g>
	<g>
		<path fill="#FFFFFF" stroke="#FFFFFF" stroke-width="5" stroke-miterlimit="10" d="M452.369,76.37
			c-0.213-15.595-12.965-28.214-28.609-28.214c-6.958,0-13.662,2.532-18.877,7.128c-4.652,4.102-7.837,9.584-9.098,15.603
			c-0.091-0.001-0.183-0.002-0.273-0.002c-13.365,0-24.239,10.874-24.239,24.239c0,13.365,10.874,24.239,24.239,24.239h56.542
			c11.854,0,21.497-9.644,21.497-21.497C473.551,86.117,464.078,76.54,452.369,76.37z M452.054,115h-56.542
			c-10.96,0-19.877-8.916-19.877-19.876s8.917-19.876,19.877-19.876c0.584,0,1.201,0.031,1.887,0.096
			c1.163,0.112,2.208-0.719,2.366-1.877c0.785-5.757,3.628-11.052,8.004-14.91c4.417-3.893,10.096-6.038,15.991-6.038
			c13.371,0,24.249,10.878,24.249,24.249c0,0.481-0.035,0.978-0.073,1.503l-0.016,0.223c-0.046,0.642,0.194,1.271,0.655,1.719
			c0.463,0.448,1.099,0.669,1.738,0.605c0.58-0.058,1.165-0.088,1.74-0.088c9.447,0,17.134,7.687,17.134,17.135
			C469.188,107.313,461.501,115,452.054,115z"/>
	</g>
</g>
<path fill="#FFFFFF" d="M296.509,64.699h-9.731v-9.732c0-2.529-2.051-4.579-4.58-4.579s-4.58,2.05-4.58,4.579v9.732h-9.731
	c-2.528,0-4.579,2.051-4.579,4.58c0,2.529,2.051,4.58,4.579,4.58h9.731v9.731c0,2.529,2.051,4.58,4.58,4.58s4.58-2.05,4.58-4.58
	v-9.731h9.731c2.529,0,4.579-2.05,4.579-4.58C301.088,66.75,299.038,64.699,296.509,64.699z"/>
<path fill="#FFFFFF" d="M478.973,153.197h-9.731v-9.732c0-2.529-2.051-4.579-4.58-4.579s-4.58,2.05-4.58,4.579v9.732h-9.731
	c-2.528,0-4.579,2.051-4.579,4.58c0,2.529,2.051,4.58,4.579,4.58h9.731v9.731c0,2.529,2.051,4.58,4.58,4.58s4.58-2.05,4.58-4.58
	v-9.731h9.731c2.529,0,4.579-2.05,4.579-4.58C483.552,155.247,481.502,153.197,478.973,153.197z"/>
<path fill="#FFFFFF" d="M74.122,191.842H64.39v-9.732c0-2.529-2.05-4.579-4.58-4.579c-2.529,0-4.58,2.05-4.58,4.579v9.732h-9.731
	c-2.529,0-4.58,2.05-4.58,4.58c0,2.529,2.051,4.58,4.58,4.58h9.731v9.731c0,2.529,2.051,4.58,4.58,4.58
	c2.529,0,4.58-2.051,4.58-4.58v-9.731h9.732c2.529,0,4.579-2.051,4.579-4.58C78.701,193.892,76.651,191.842,74.122,191.842z"/>
<g>
	<path fill="#FFFFFF" d="M469.544,298.376v-16.039c2.361-1.111,4.007-3.532,4.007-6.345c0-1.987-0.827-3.781-2.145-5.056
		c-0.201-0.456-0.487-0.88-0.867-1.233l-68.493-63.735c-0.693-0.646-1.605-1.005-2.554-1.005H297.642l-23.722-12.144
		c-0.643-0.33-1.356-0.556-2.121-0.673c-0.095-0.016-0.231-0.037-0.312-0.045c-0.236-0.026-0.473-0.036-0.709-0.036h-0.123
		c-0.237,0-0.472,0.01-0.734,0.039c-0.097,0.012-0.192,0.026-0.292,0.044c-0.763,0.117-1.474,0.343-2.115,0.672l-23.722,12.144
		H127.936c-0.948,0-1.86,0.359-2.554,1.005L56.89,269.703c-1.128,1.049-1.499,2.682-0.935,4.116
		c0.564,1.434,1.948,2.376,3.489,2.376h0.857c0.077,2.725,1.693,5.059,3.996,6.143v16.038c-2.361,1.108-4.006,3.53-4.006,6.341
		c0,3.644,2.76,6.643,6.269,6.963v133.74c0,2.07,1.679,3.749,3.749,3.749h43.977v8.197h-5.049c-3.935,0-7.135,3.251-7.135,7.247
		c0,3.995,3.201,7.246,7.135,7.246h321.083c3.936,0,7.139-3.251,7.139-7.246c0-3.996-3.203-7.247-7.139-7.247h-5.047v-8.197h37.986
		c2.07,0,3.749-1.679,3.749-3.749V311.694c3.637-0.188,6.542-3.241,6.542-6.978C473.551,301.906,471.906,299.484,469.544,298.376z
		 M71.796,297.723v-14.735h71.92v13.11c-0.882,0.381-1.672,0.938-2.332,1.625H71.796z M346.315,314.87h0.539l-1.109,107.864
		c-1.099,0.891-1.816,2.244-1.816,3.778c0,1.346,0.543,2.562,1.417,3.443c-0.688,0.389-1.281,0.953-1.742,1.647
		c-1.542,0.465-2.673,1.88-2.673,3.573v2.586h-7.155v-2.586c0-1.693-1.13-3.107-2.672-3.573c-0.46-0.693-1.055-1.259-1.743-1.647
		c0.875-0.881,1.418-2.098,1.418-3.443c0-1.534-0.719-2.887-1.815-3.777l-1.11-107.865h0.539c2.07,0,3.749-1.679,3.749-3.749v-1.015
		h10.426v1.015C342.566,313.191,344.244,314.87,346.315,314.87z M198.161,431.604c-0.461-0.694-1.055-1.26-1.743-1.648
		c0.874-0.881,1.417-2.098,1.417-3.443c0-1.534-0.719-2.888-1.816-3.778l-1.11-107.864h0.541c2.07,0,3.749-1.679,3.749-3.749v-1.015
		h10.424v1.015c0,2.07,1.679,3.749,3.749,3.749h0.539l-1.109,107.864c-1.098,0.891-1.816,2.244-1.816,3.778
		c0,1.346,0.543,2.562,1.417,3.443c-0.688,0.389-1.282,0.953-1.742,1.647c-1.542,0.465-2.673,1.88-2.673,3.573v2.586h-7.156v-2.586
		C200.831,433.483,199.702,432.069,198.161,431.604z M230.464,431.603c-0.461-0.693-1.055-1.259-1.743-1.647
		c0.874-0.881,1.417-2.098,1.417-3.443c0-1.534-0.718-2.888-1.815-3.778l-1.109-107.864h0.54c2.07,0,3.749-1.679,3.749-3.749v-1.015
		h10.424v1.015c0,2.07,1.678,3.749,3.749,3.749h0.54l-1.109,107.864c-1.098,0.891-1.816,2.244-1.816,3.778
		c0,1.346,0.543,2.562,1.417,3.443c-0.688,0.389-1.282,0.954-1.743,1.648c-1.542,0.465-2.671,1.879-2.671,3.572v2.586h-7.156v-2.586
		C233.135,433.483,232.006,432.069,230.464,431.603z M262.767,431.603c-0.46-0.693-1.054-1.259-1.742-1.647
		c0.874-0.881,1.417-2.098,1.417-3.443c0-1.534-0.718-2.888-1.816-3.778l-1.109-107.864h0.54c2.07,0,3.749-1.679,3.749-3.749v-1.015
		h14.153v1.015c0,2.07,1.679,3.749,3.749,3.749h0.539l-1.109,107.864c-1.098,0.891-1.816,2.244-1.816,3.778
		c0,1.346,0.543,2.562,1.418,3.442c-0.688,0.39-1.283,0.955-1.743,1.648c-1.541,0.466-2.672,1.88-2.672,3.573v2.586H265.44v-2.586
		C265.44,433.483,264.31,432.069,262.767,431.603z M298.8,431.604c-0.461-0.694-1.055-1.26-1.743-1.648
		c0.874-0.881,1.417-2.098,1.417-3.443c0-1.534-0.718-2.887-1.815-3.777l-1.109-107.865h0.54c2.07,0,3.749-1.679,3.749-3.749v-1.015
		h10.424v1.015c0,2.07,1.679,3.749,3.749,3.749h0.728l-1.294,107.861c-1.101,0.891-1.82,2.246-1.82,3.781
		c0,1.346,0.544,2.562,1.418,3.443c-0.688,0.389-1.282,0.954-1.743,1.647c-1.542,0.465-2.671,1.88-2.671,3.573v2.586h-7.157v-2.586
		C301.471,433.483,300.341,432.069,298.8,431.604z M151.213,295.518v-16.795h239.008v16.795H151.213z M175.574,264.134
		l95.663-49.641l95.666,49.641H175.574z M165.857,431.603c-0.461-0.693-1.055-1.259-1.744-1.647
		c0.874-0.881,1.417-2.098,1.417-3.443c0-1.534-0.718-2.888-1.815-3.777l-1.109-107.865h0.54c2.07,0,3.749-1.679,3.749-3.749v-1.015
		h10.423v1.015c0,2.07,1.679,3.749,3.749,3.749h0.728l-1.294,107.862c-1.1,0.89-1.819,2.245-1.819,3.78
		c0,1.346,0.543,2.562,1.417,3.443c-0.688,0.39-1.283,0.954-1.743,1.648c-1.542,0.465-2.671,1.879-2.671,3.572v2.586h-7.156v-2.586
		C168.529,433.483,167.399,432.069,165.857,431.603z M378.616,314.87h0.541l-1.11,107.865c-1.098,0.89-1.814,2.243-1.814,3.777
		c0,1.346,0.543,2.562,1.416,3.442c-0.688,0.39-1.283,0.955-1.744,1.649c-1.54,0.466-2.67,1.88-2.67,3.572v2.586h-7.156v-2.586
		c0-1.693-1.131-3.108-2.672-3.573c-0.462-0.694-1.055-1.259-1.743-1.647c0.873-0.881,1.417-2.098,1.417-3.443
		c0-1.533-0.718-2.887-1.814-3.777l-1.11-107.865h0.54c2.07,0,3.749-1.679,3.749-3.749v-1.015h10.423v1.015
		C374.867,313.191,376.546,314.87,378.616,314.87z M400.05,297.723c-0.659-0.687-1.449-1.244-2.332-1.625v-13.11h64.328v14.735
		H400.05z M398.019,212.461l60.435,56.237h-49.812l1.109-1.905c0.518-0.89,0.646-1.953,0.356-2.941
		c-0.289-0.987-0.973-1.812-1.889-2.281l-95.93-49.109H398.019z M129.411,212.461h99.735l-95.93,49.109
		c-0.917,0.469-1.6,1.294-1.889,2.281c-0.29,0.988-0.161,2.052,0.357,2.941l1.109,1.905H68.976L129.411,212.461z M74.057,311.712
		h71.018c0.285,1.787,1.822,3.158,3.689,3.158h0.539l-1.11,107.865c-1.097,0.891-1.815,2.243-1.815,3.777
		c0,1.346,0.543,2.562,1.417,3.442c-0.688,0.39-1.282,0.954-1.743,1.648c-1.542,0.465-2.672,1.88-2.672,3.573v2.586h-1.79
		c-2.07,0-3.749,1.679-3.749,3.749v0.159H74.057V311.712z M121.783,457.366v-5.389h295.992v5.389H121.783z M403.198,441.671v-0.159
		c0-2.07-1.678-3.749-3.748-3.749h-1.067v-2.586c0-1.693-1.131-3.107-2.672-3.572c-0.46-0.694-1.054-1.26-1.742-1.648
		c0.874-0.881,1.417-2.098,1.417-3.443c0-1.534-0.718-2.888-1.816-3.778l-1.11-107.864h0.541c1.867,0,3.405-1.371,3.689-3.158
		h62.822v129.959H403.198z"/>
	<path fill="#FFFFFF" d="M445.628,346.267h-34.489c-1.812,0-3.279,1.47-3.279,3.28v64.22c0,1.811,1.468,3.28,3.279,3.28h34.489
		c1.812,0,3.28-1.47,3.28-3.28v-64.22C448.908,347.737,447.44,346.267,445.628,346.267z M442.348,361.564h-10.685v-8.736h10.685
		V361.564z M425.103,352.828v8.736h-10.684v-8.736H425.103z M414.419,368.125h10.684v42.362h-10.684V368.125z M431.663,410.487
		v-42.362h10.685v42.362H431.663z"/>
	<path fill="#FFFFFF" d="M123.303,346.267H88.814c-1.812,0-3.28,1.47-3.28,3.28v64.22c0,1.811,1.469,3.28,3.28,3.28h34.489
		c1.812,0,3.28-1.47,3.28-3.28v-64.22C126.583,347.737,125.115,346.267,123.303,346.267z M120.023,361.564h-10.685v-8.736h10.685
		V361.564z M102.778,352.828v8.736H92.094v-8.736H102.778z M92.094,368.125h10.684v42.362H92.094V368.125z M109.338,410.487v-42.362
		h10.685v42.362H109.338z"/>
</g>
<path fill="#FFFFFF" d="M231.5,69.099c0,2.43-1.97,4.4-4.4,4.4h-63.699c-2.431,0-4.4-1.97-4.4-4.4l0,0c0-2.43,1.97-4.4,4.4-4.4
	H227.1C229.531,64.699,231.5,66.67,231.5,69.099L231.5,69.099z"/>
<path fill="#FFFFFF" d="M256,69.099c0,2.43-1.97,4.4-4.4,4.4h-6.699c-2.431,0-4.4-1.97-4.4-4.4l0,0c0-2.43,1.97-4.4,4.4-4.4h6.699
	C254.031,64.699,256,66.67,256,69.099L256,69.099z"/>
<path fill="#FFFFFF" d="M392.5,157.776c0,2.43-1.97,4.4-4.4,4.4h-63.699c-2.431,0-4.4-1.97-4.4-4.4l0,0c0-2.43,1.97-4.4,4.4-4.4
	H388.1C390.531,153.376,392.5,155.346,392.5,157.776L392.5,157.776z"/>
<path fill="#FFFFFF" d="M417,157.776c0,2.43-1.97,4.4-4.4,4.4h-6.699c-2.431,0-4.4-1.97-4.4-4.4l0,0c0-2.43,1.97-4.4,4.4-4.4h6.699
	C415.031,153.376,417,155.346,417,157.776L417,157.776z"/>
<path fill="#FFFFFF" d="M436.134,157.776c0,2.43-1.97,4.4-4.4,4.4h-0.699c-2.431,0-4.4-1.97-4.4-4.4l0,0c0-2.43,1.97-4.4,4.4-4.4
	h0.699C434.164,153.376,436.134,155.346,436.134,157.776L436.134,157.776z"/>
</svg>
