<svg xmlns="http://www.w3.org/2000/svg" viewBox="0 0 71.9 65.58"><defs><style>.cls-1{fill:#fff;}</style></defs><title>bar-lounge</title><g id="Layer_2" data-name="Layer 2"><g id="Layer_2-2" data-name="Layer 2"><path class="cls-1" d="M35.95,0a7.37,7.37,0,1,0,7.37,7.37A7.38,7.38,0,0,0,35.95,0Zm0,12.64a5.27,5.27,0,1,1,5.27-5.27A5.27,5.27,0,0,1,35.95,12.64Z"/><path class="cls-1" d="M38.05,7.41a1.52,1.52,0,0,1-1.25-.65,1.05,1.05,0,0,0-1.72,0,1.52,1.52,0,0,1-1.24.65,1.05,1.05,0,1,0,0,2.11,3.63,3.63,0,0,0,2.11-.68,3.63,3.63,0,0,0,2.11.68,1.05,1.05,0,1,0,0-2.11Z"/><path class="cls-1" d="M70.84,27.38H64.63l.93-10.14c0-.14,0-.26,0-.39a4.22,4.22,0,0,0-3.16-4.08V7.37a1.05,1.05,0,1,0-2.11,0v5.4a4.22,4.22,0,0,0-3.16,4.08c0,.13,0,.25,0,.39l.93,10.14H47.53V24.92a5.27,5.27,0,0,0-4.34-5.18,3.87,3.87,0,0,0-3.74-2.89h-7a3.87,3.87,0,0,0-3.74,2.89,5.27,5.27,0,0,0-4.34,5.18v2.46H19V23a3.16,3.16,0,0,0,2.11-3V13A1.05,1.05,0,0,0,20,11.94H15.8A1.05,1.05,0,0,0,14.74,13v7a3.16,3.16,0,0,0,2.11,3v4.39H10.53V23a3.16,3.16,0,0,0,2.11-3V13a1.05,1.05,0,0,0-1.05-1.05H7.37A1.05,1.05,0,0,0,6.32,13v7a3.16,3.16,0,0,0,2.11,3v4.39H1.05A1.05,1.05,0,0,0,0,28.44v6.32a1.05,1.05,0,0,0,1.05,1.05H2.11V64.52a1.05,1.05,0,0,0,1.05,1.05H68.74a1.05,1.05,0,0,0,1.05-1.05V35.81h1.05a1.05,1.05,0,0,0,1.05-1.05V28.44A1.05,1.05,0,0,0,70.84,27.38ZM61.36,14.74a2.11,2.11,0,0,1,2.11,2.11c0,.06,0,.13,0,.2l-1,10.33H60.22L59.27,17c0-.07,0-.14,0-.2A2.11,2.11,0,0,1,61.36,14.74Zm-18,7.2a3.16,3.16,0,0,1,2.11,3v2.46H43.32ZM37,19h2.46a1.76,1.76,0,0,1,1.76,1.76v6.67H37Zm-6.32,1.76A1.76,1.76,0,0,1,32.44,19h2.46v8.43H30.68Zm-4.21,4.21a3.16,3.16,0,0,1,2.11-3v5.44H26.47ZM16.85,14H19v6a1.05,1.05,0,0,1-2.11,0ZM8.43,14h2.11v6a1.05,1.05,0,1,1-2.11,0ZM18,63.47H15.94V59.26H18ZM11.73,44.93V43.88a1.76,1.76,0,0,1,1.76-1.76h7a1.76,1.76,0,0,1,1.76,1.76v1.05ZM18,57.15H15.94V47H18Zm19,6.32H34.89V59.26H37ZM30.68,44.93V43.88a1.76,1.76,0,0,1,1.76-1.76h7a1.76,1.76,0,0,1,1.76,1.76v1.05ZM37,57.15H34.89V47H37Zm19,6.32H53.85V59.26H56ZM49.64,44.93V43.88a1.76,1.76,0,0,1,1.76-1.76h7a1.76,1.76,0,0,1,1.76,1.76v1.05ZM56,57.15H53.85V47H56Zm11.73,6.32H58.06V59.26h3.16a1.05,1.05,0,0,0,0-2.11H58.06V47h3.16A1.05,1.05,0,0,0,62.28,46V43.88A3.87,3.87,0,0,0,58.42,40h-7a3.87,3.87,0,0,0-3.86,3.86V46A1.05,1.05,0,0,0,48.59,47h3.16V57.15H48.59a1.05,1.05,0,0,0,0,2.11h3.16v4.21H39.11V59.26h3.16a1.05,1.05,0,0,0,0-2.11H39.11V47h3.16A1.05,1.05,0,0,0,43.32,46V43.88A3.87,3.87,0,0,0,39.46,40h-7a3.87,3.87,0,0,0-3.86,3.86V46A1.05,1.05,0,0,0,29.63,47h3.16V57.15H29.63a1.05,1.05,0,0,0,0,2.11h3.16v4.21H20.15V59.26h3.16a1.05,1.05,0,0,0,0-2.11H20.15V47h3.16A1.05,1.05,0,0,0,24.36,46V43.88A3.87,3.87,0,0,0,20.5,40h-7a3.87,3.87,0,0,0-3.86,3.86V46A1.05,1.05,0,0,0,10.67,47h3.16V57.15H10.67a1.05,1.05,0,0,0,0,2.11h3.16v4.21H4.21V35.81H67.68ZM69.79,33.7H2.11V29.49H69.79Z"/></g></g></svg>