<svg xmlns="http://www.w3.org/2000/svg" viewBox="0 0 65.54 65.54"><defs><style>.cls-1{fill:#fff;}</style></defs><title>kaki-lima</title><g id="Layer_2" data-name="Layer 2"><g id="Layer_2-2" data-name="Layer 2"><path class="cls-1" d="M64.45,29.49a10.93,10.93,0,0,0-10,6.55h-.92V29.49H51.34V28.4a1.09,1.09,0,1,0-2.18,0v1.09H47V36H45.88V29.49H43.7V28.4a1.09,1.09,0,0,0-2.18,0v1.09H39.33V36H38.23V30.59H35V22.18a9,9,0,0,0,10.92,0V24a1.09,1.09,0,0,0,2.18,0V22.15a9,9,0,0,0,10.92,0V24a1.09,1.09,0,1,0,2.18,0V19.66C61.17,10.26,49.51,2.57,35,2.2V1.09a1.09,1.09,0,0,0-2.18,0V2.2C18.22,2.57,6.55,10.26,6.55,19.66V24a1.09,1.09,0,1,0,2.18,0V22.18A9.11,9.11,0,0,0,14.18,24h0a9.16,9.16,0,0,0,5.49-1.86V24a1.09,1.09,0,1,0,2.18,0V22.12a9,9,0,0,0,10.92,0v8.47H29.49V36H14.2V35H9.83V31.68h6.55a1.09,1.09,0,1,0,0-2.18H1.09a1.09,1.09,0,1,0,0,2.18H7.65V35H3.28v14.2H12v.39h0a9.8,9.8,0,0,0,.68,13.09l0,0,0,0a9.81,9.81,0,0,0,13.85,0l0,0,0,0a9.89,9.89,0,0,0,1.83-2.57H52.59a4.26,4.26,0,0,0-.16,1.09A4.37,4.37,0,1,0,56.8,56.8a4.31,4.31,0,0,0-1.09.16V40.42a8.75,8.75,0,0,1,8.74-8.74,1.09,1.09,0,0,0,0-2.18ZM59,19.27a7.3,7.3,0,0,1-5.43,2.57,7.37,7.37,0,0,1-5.49-2.61c0-.19,0-.37,0-.55,0-.43,0-.85-.08-1.27s-.06-.59-.1-.88-.1-.71-.16-1.06-.11-.6-.17-.9-.16-.64-.24-1-.15-.58-.24-.86-.23-.66-.36-1-.36-.89-.56-1.32-.27-.58-.42-.86-.29-.49-.43-.73-.3-.49-.46-.73-.32-.45-.49-.66S44,7,43.77,6.81s-.34-.39-.52-.58-.43-.43-.66-.63-.24-.25-.38-.36C51.78,7.3,58.71,12.79,59,19.27ZM41.51,31.68H43.7V36H41.51Zm-14.2-9.9a7.33,7.33,0,0,1-5.45-2.59C22,11,26.49,5.06,32.77,4.43V19.18A7.34,7.34,0,0,1,27.31,21.78Zm4.37,11H36V36H31.68ZM24,56.8h3.19a7.59,7.59,0,0,1-1.44,3.48L23.52,58A1.09,1.09,0,0,0,22,59.57l2.25,2.25a7.59,7.59,0,0,1-3.48,1.44V60.08a1.09,1.09,0,1,0-2.18,0v3.19a7.59,7.59,0,0,1-3.48-1.44l2.25-2.25A1.09,1.09,0,0,0,15.8,58l-2.25,2.25A7.59,7.59,0,0,1,12.1,56.8h3.19a1.09,1.09,0,0,0,0-2.18H12.1a7.59,7.59,0,0,1,1.44-3.48L15.8,53.4a1.09,1.09,0,1,0,1.54-1.54L15.09,49.6a7.6,7.6,0,0,1,3.48-1.44v3.19a1.09,1.09,0,0,0,2.18,0V48.15a7.59,7.59,0,0,1,3.48,1.44L22,51.85a1.09,1.09,0,1,0,1.54,1.54l2.25-2.25a7.6,7.6,0,0,1,1.44,3.48H24a1.09,1.09,0,1,0,0,2.18Zm27.31-1.09H31.72l-.08-1a12,12,0,0,0-14-10.85l-1.27.22V40.42h35Zm0-19.66H49.16V31.68h2.18Z"/><circle class="cls-1" cx="19.66" cy="55.71" r="1.09"/></g></g></svg>