<?xml version="1.0" encoding="utf-8"?>
<!-- Generator: Adobe Illustrator 16.0.0, SVG Export Plug-In . SVG Version: 6.00 Build 0)  -->
<!DOCTYPE svg PUBLIC "-//W3C//DTD SVG 1.1//EN" "http://www.w3.org/Graphics/SVG/1.1/DTD/svg11.dtd">
<svg version="1.1" id="Layer_1" xmlns="http://www.w3.org/2000/svg" xmlns:xlink="http://www.w3.org/1999/xlink" x="0px" y="0px"
	 width="512px" height="512px" viewBox="0 0 512 512" enable-background="new 0 0 512 512" xml:space="preserve">
<path fill="#FFFFFF" d="M11.774,165.058h0.11c5.493,0,9.947-4.453,9.947-9.947c0-5.493-4.454-9.947-9.947-9.947h-0.11
	c-5.493,0-9.947,4.454-9.947,9.947C1.826,160.605,6.28,165.058,11.774,165.058z"/>
<path fill="#FFFFFF" d="M224.497,138.768l0.095-0.093c3.895-3.874,3.911-10.172,0.036-14.066
	c-3.876-3.897-10.174-3.912-14.067-0.037l-0.094,0.092c-3.894,3.875-3.912,10.173-0.036,14.067c1.944,1.954,4.497,2.932,7.052,2.932
	C220.02,141.664,222.557,140.699,224.497,138.768z"/>
<path fill="#FFFFFF" d="M264.4,272.403c-3.886-3.883-10.182-3.883-14.068,0c-3.885,3.885-3.885,10.183,0,14.068l21.26,21.261
	c1.942,1.941,4.488,2.912,7.033,2.912c2.546,0,5.091-0.971,7.033-2.912c3.885-3.885,3.885-10.184,0-14.068L264.4,272.403z"/>
<path fill="#FFFFFF" d="M460.715,365.336c-11.635-11.635-11.634-30.566,0.001-42.201c22.369-22.369,22.369-58.77,0-81.141
	l-76.251-76.25c4.959-10.422,3.137-23.292-5.48-31.909l-39.163-39.164c-1.864-1.865-4.396-2.913-7.032-2.913
	c-2.638,0-5.168,1.048-7.034,2.913l-5.126,5.126L301.18,80.348c-3.884-3.884-10.181-3.884-14.067,0
	c-3.884,3.884-3.884,10.183,0,14.068l19.448,19.448l-6.409,6.409c-1.864,1.865-2.913,4.396-2.913,7.033
	c0,2.639,1.049,5.169,2.913,7.034l39.164,39.163c5.298,5.299,12.343,8.216,19.835,8.216c3.821,0,7.526-0.765,10.943-2.211
	l76.554,76.552c7.079,7.079,10.979,16.491,10.979,26.503c0,10.013-3.899,19.424-10.979,26.505c-19.39,19.393-19.39,50.944,0,70.335
	l35.734,35.733c11.733,11.733,11.733,30.825,0,42.559l-0.941,0.94c-4.461,4.462-10.393,6.919-16.703,6.919
	c-6.31,0-12.241-2.456-16.703-6.919l-4.751-4.751l1.458-1.458c9.488-9.488,9.488-24.928,0-34.417l-8.477-8.476l0.359-0.36
	c3.476-3.476,3.892-8.971,0.977-12.93L264.132,160.545c0.076-1.835,0.128-3.656,0.128-5.431
	c0-72.325-58.841-131.167-131.166-131.167c-28.785,0-56.106,9.149-79.012,26.459C31.929,67.147,15.361,90.94,7.431,117.404
	c-1.578,5.264,1.41,10.808,6.672,12.384c5.261,1.576,10.806-1.409,12.383-6.672C40.475,76.44,84.313,43.841,133.094,43.841
	c61.357,0,111.273,49.917,111.273,111.273c0,1.322-0.025,2.672-0.076,4.04L137.134,266.311c-1.37,0.052-2.719,0.076-4.041,0.076
	c-10.859,0-21.469-1.624-31.562-4.65l99.933-99.934c3.884-3.884,3.884-10.182,0-14.067c-3.885-3.884-10.181-3.884-14.067,0
	L81.555,253.578c-25.954-13.657-46.333-37.316-55.068-66.467c-1.577-5.264-7.119-8.249-12.383-6.673
	c-5.263,1.576-8.25,7.122-6.673,12.384c7.93,26.465,24.498,50.258,46.65,66.999c22.906,17.311,50.228,26.461,79.013,26.461
	c1.739,0,3.523-0.05,5.32-0.123l235.761,173.514c1.765,1.3,3.834,1.936,5.894,1.936c2.562,0,5.109-0.987,7.036-2.914l0.409-0.408
	l8.477,8.476c4.744,4.745,10.976,7.116,17.206,7.116c5.705,0,11.396-2.011,15.959-5.986l4.811,4.812
	c8.22,8.219,19.147,12.745,30.771,12.745c11.625,0,22.552-4.527,30.771-12.745l0.941-0.941c19.489-19.49,19.488-51.203,0-70.691
	L460.715,365.336z M364.917,159.437c-1.541,1.541-3.587,2.39-5.767,2.39s-4.227-0.849-5.768-2.39l-32.13-32.129l6.403-6.404
	c0.002-0.002,0.003-0.003,0.006-0.005c0.001-0.002,0.002-0.004,0.004-0.005l5.122-5.122l32.129,32.13
	c1.54,1.54,2.39,3.588,2.39,5.767C367.307,155.85,366.457,157.898,364.917,159.437L364.917,159.437z M173.231,287.082L156.678,274.9
	l96.15-96.15l12.103,16.444l-90.699,90.698C173.86,286.266,173.533,286.668,173.231,287.082z M189.331,298.929L276.86,211.4
	l139.652,189.751l-37.43,37.431L189.331,298.929z M410.055,452.695l-8.476-8.477l20.617-20.617l8.476,8.477
	c1.133,1.132,1.303,2.453,1.303,3.142c0,0.688-0.17,2.01-1.303,3.141l-14.334,14.335
	C414.607,454.427,411.787,454.427,410.055,452.695z"/>
<path fill="#FFFFFF" d="M85.012,335.104L65.37,332.25l-8.783-17.799c-1.676-3.395-5.134-5.545-8.92-5.545
	c-3.787,0-7.244,2.15-8.92,5.545l-8.784,17.799l-19.642,2.854c-3.748,0.544-6.859,3.17-8.029,6.77
	c-1.17,3.602-0.194,7.554,2.516,10.197l14.213,13.854l-3.356,19.561c-0.641,3.731,0.895,7.504,3.958,9.729
	c3.063,2.226,7.125,2.518,10.475,0.758l17.568-9.235l17.568,9.235c1.455,0.766,3.045,1.143,4.627,1.143
	c2.062,0,4.115-0.643,5.848-1.9c3.063-2.225,4.598-5.996,3.958-9.729l-3.355-19.561l14.213-13.854
	c2.711-2.644,3.686-6.596,2.516-10.197C91.87,338.273,88.758,335.648,85.012,335.104z M58.681,355.329
	c-2.343,2.286-3.414,5.577-2.86,8.806l0.832,4.852l-4.356-2.292c-1.45-0.763-3.04-1.143-4.629-1.143
	c-1.59,0-3.179,0.381-4.628,1.143l-4.356,2.291l0.832-4.851c0.553-3.229-0.517-6.52-2.86-8.806l-3.526-3.437l4.872-0.707
	c3.24-0.472,6.04-2.507,7.49-5.443l2.177-4.413l2.177,4.413c1.45,2.937,4.25,4.972,7.49,5.443l4.872,0.708L58.681,355.329z"/>
<path fill="#FFFFFF" d="M418.284,71.822l-4.794,27.954c-0.641,3.731,0.895,7.503,3.957,9.729c3.064,2.225,7.126,2.519,10.475,0.757
	l25.105-13.198l25.106,13.198c1.454,0.766,3.044,1.142,4.626,1.142c2.062,0,4.116-0.641,5.848-1.899
	c3.062-2.225,4.598-5.998,3.958-9.729l-4.794-27.954l20.311-19.798c2.712-2.643,3.686-6.596,2.517-10.197
	c-1.171-3.6-4.284-6.224-8.029-6.77L474.5,30.978L461.948,5.543C460.273,2.15,456.815,0,453.028,0c-3.786,0-7.244,2.15-8.92,5.544
	l-12.553,25.435l-28.068,4.079c-3.747,0.544-6.859,3.169-8.029,6.77c-1.17,3.602-0.193,7.554,2.517,10.196L418.284,71.822z
	 M439.592,49.915c3.239-0.471,6.039-2.506,7.488-5.441l5.947-12.051l5.947,12.051c1.45,2.936,4.25,4.971,7.489,5.441l13.299,1.932
	l-9.624,9.379c-2.344,2.285-3.414,5.577-2.86,8.805l2.271,13.244l-11.894-6.253c-1.449-0.762-3.039-1.142-4.629-1.142
	s-3.179,0.381-4.628,1.142l-11.896,6.253l2.272-13.244c0.554-3.226-0.517-6.519-2.86-8.805l-9.623-9.379L439.592,49.915z"/>
<path fill="#FFFFFF" d="M240.545,411.007l-40.957-5.951l-18.315-37.113c-1.676-3.395-5.134-5.544-8.92-5.544
	c-3.788,0-7.245,2.149-8.92,5.544l-18.316,37.113l-40.956,5.951c-3.747,0.545-6.859,3.171-8.03,6.77
	c-1.17,3.602-0.194,7.555,2.517,10.197l29.635,28.889l-6.995,40.791c-0.641,3.731,0.894,7.502,3.958,9.729
	c1.733,1.26,3.786,1.899,5.848,1.899c1.584,0,3.172-0.378,4.627-1.143l36.633-19.259l36.632,19.259
	c3.35,1.76,7.412,1.468,10.475-0.757c3.062-2.227,4.597-5.997,3.958-9.729l-6.997-40.791l29.637-28.889
	c2.711-2.643,3.686-6.596,2.516-10.197C247.403,414.177,244.292,411.552,240.545,411.007z M198.789,446.265
	c-2.343,2.286-3.414,5.578-2.86,8.805l4.474,26.082l-23.421-12.313c-2.899-1.523-6.36-1.523-9.258,0l-23.422,12.313l4.474-26.082
	c0.553-3.226-0.518-6.519-2.861-8.805l-18.949-18.469l26.186-3.805c3.24-0.471,6.04-2.507,7.489-5.442l11.71-23.728l11.71,23.728
	c1.449,2.936,4.25,4.972,7.489,5.442l26.187,3.805L198.789,446.265z"/>
</svg>
