<?xml version="1.0" encoding="utf-8"?>
<!-- Generator: Adobe Illustrator 16.0.0, SVG Export Plug-In . SVG Version: 6.00 Build 0)  -->
<!DOCTYPE svg PUBLIC "-//W3C//DTD SVG 1.1//EN" "http://www.w3.org/Graphics/SVG/1.1/DTD/svg11.dtd">
<svg version="1.1" id="Capa_1" xmlns="http://www.w3.org/2000/svg" xmlns:xlink="http://www.w3.org/1999/xlink" x="0px" y="0px"
	 width="512px" height="512px" viewBox="0 0 512 512" enable-background="new 0 0 512 512" xml:space="preserve">
<g>
	<g>
		<path fill="#FFFFFF" d="M359.223,260.135c-1.826-1.826-4.36-2.878-6.944-2.878s-5.118,1.051-6.946,2.878
			c-1.827,1.827-2.878,4.361-2.878,6.946c0,2.584,1.05,5.118,2.878,6.945s4.362,2.879,6.946,2.879s5.118-1.052,6.944-2.879
			c1.827-1.827,2.88-4.361,2.88-6.945C362.102,264.497,361.05,261.963,359.223,260.135z"/>
	</g>
</g>
<g>
	<g>
		<path fill="#FFFFFF" d="M461.439,103.889c10.206-9.675,16.589-23.341,16.589-38.479v-7.859c0-29.251-23.8-53.051-53.051-53.051
			c-29.252,0-53.051,23.8-53.051,53.051v7.859c0,15.138,6.384,28.805,16.588,38.479c-26.942,10.652-46.061,36.938-46.061,67.622
			v56.653c0,5.425,4.399,9.824,9.824,9.824c5.424,0,9.824-4.399,9.824-9.824v-56.653c0-29.251,23.799-53.051,53.051-53.051h19.648
			c29.251,0,53.051,23.8,53.051,53.051v102.172c0,5.425,4.399,9.824,9.824,9.824c5.424,0,9.824-4.399,9.824-9.824V171.511
			C507.5,140.827,488.381,114.541,461.439,103.889z M458.379,65.41c0,18.418-14.984,33.402-33.402,33.402
			c-18.419,0-33.402-14.984-33.402-33.402v-7.859c0-18.418,14.983-33.402,33.402-33.402c18.418,0,33.402,14.984,33.402,33.402V65.41
			z"/>
	</g>
</g>
<g>
	<g>
		<path fill="#FFFFFF" d="M139.271,136.106c0.516-1.194,0.805-2.508,0.805-3.892V81.129c0-29.251-23.8-53.051-53.051-53.051
			c-29.252,0-53.052,23.8-53.052,53.051v51.086c0,1.383,0.289,2.698,0.804,3.892C16.458,149.32,4.5,170.828,4.5,195.09v78.594
			c0,5.425,4.399,9.824,9.824,9.824c5.425,0,9.824-4.399,9.824-9.824V195.09c0-29.251,23.799-53.051,53.051-53.051h19.648
			c29.251,0,53.051,23.8,53.051,53.051v78.594c0,5.425,4.399,9.824,9.824,9.824c5.425,0,9.824-4.399,9.824-9.824V195.09
			C169.547,170.828,157.589,149.32,139.271,136.106z M120.426,122.39H96.848H77.199H53.621V81.129
			c0-18.418,14.984-33.402,33.402-33.402s33.402,14.984,33.402,33.402V122.39z"/>
	</g>
</g>
<g>
	<g>
		<path fill="#FFFFFF" d="M112.344,353.28c-5.424,0-9.824,4.399-9.824,9.824c0,5.427,4.4,9.824,9.824,9.824h0.07
			c5.425,0,9.789-4.397,9.789-9.824C122.204,357.679,117.771,353.28,112.344,353.28z"/>
	</g>
</g>
<g>
	<g>
		<path fill="#FFFFFF" d="M474.098,451.972V206.879c0-5.424-4.4-9.824-9.824-9.824c-5.425,0-9.824,4.4-9.824,9.824v42.244h-58.945
			v-42.244c0-5.424-4.4-9.824-9.824-9.824c-5.425,0-9.824,4.4-9.824,9.824v245.094c-18.116,7.279-30.946,25.016-30.946,45.703
			c0,5.425,4.399,9.824,9.824,9.824H495.22c5.424,0,9.824-4.399,9.824-9.824C505.044,476.988,492.213,459.251,474.098,451.972z
			 M415.153,487.851h-48.919c4.061-11.504,15.042-19.771,27.92-19.771h20.999V487.851z M424.977,302.174
			c-5.425,0-9.824,4.4-9.824,9.824v136.434h-19.648v-179.66h58.945v179.66h-19.648V311.998
			C434.801,306.574,430.402,302.174,424.977,302.174z M434.801,487.851V468.08H455.8c12.877,0,23.859,8.268,27.92,19.771H434.801z"
			/>
	</g>
</g>
<g>
	<g>
		<path fill="#FFFFFF" d="M352.278,290.385c-5.425,0-9.824,4.4-9.824,9.824c0,13.308-10.787,24.138-24.073,24.217
			c-4.601-15.185-15.334-27.72-29.307-34.726c8.687-8.561,14.083-20.447,14.083-33.576c0-26.002-21.154-47.156-47.156-47.156
			c-26.002,0-47.156,21.154-47.156,47.156c0,13.128,5.397,25.015,14.083,33.575c-13.974,7.006-24.708,19.541-29.307,34.726
			c-13.288-0.078-24.073-10.908-24.073-24.216c0-5.424-4.399-9.824-9.824-9.824c-4.376,0-8.081,2.863-9.352,6.816l-11.526-91.549
			c-0.678-5.382-5.582-9.188-10.974-8.52c-5.384,0.678-9.198,5.591-8.522,10.974l23.17,184.021H31.527l2.417-19.197h43.492
			c5.424,0,9.824-4.397,9.824-9.824c0-5.425-4.4-9.824-9.824-9.824H36.42l18.276-145.174c0.677-5.382-3.137-10.295-8.521-10.974
			c-5.366-0.667-10.296,3.136-10.974,8.52L10.64,400.724c-0.352,2.799,0.513,5.61,2.379,7.726c1.865,2.113,4.548,3.326,7.368,3.326
			h29.549v46.481c0,0.151,0.016,0.301,0.022,0.451l-32.021,32.021c-2.81,2.81-3.649,7.035-2.13,10.706
			c1.521,3.671,5.104,6.064,9.077,6.064h140.486c3.974,0,7.555-2.394,9.076-6.064c1.521-3.671,0.679-7.896-2.13-10.706
			l-32.021-32.021c0.006-0.15,0.023-0.3,0.023-0.451v-46.481h13.338c2.819,0,5.503-1.212,7.368-3.326
			c1.864-2.116,2.73-4.928,2.379-7.726l-10.719-85.138c5.952,15.851,20.826,27.369,38.474,28.408v73.45
			c0,5.426,4.399,9.824,9.824,9.824h9.949v60.973c0,10.619,8.639,19.26,19.258,19.26h16.499c3.428,0,6.644-0.911,9.435-2.488
			c2.791,1.577,6.006,2.488,9.435,2.488h16.497c10.621,0,19.261-8.641,19.261-19.26v-60.973h9.699c5.424,0,9.824-4.398,9.824-9.824
			v-73.45c22.979-1.355,41.262-20.472,41.262-43.786C362.102,294.785,357.702,290.385,352.278,290.385z M104.953,412.865h15.719
			v35.566h-15.719V412.865z M85.304,487.851H48.604l19.771-19.771h16.929V487.851z M85.304,448.431H69.586v-35.566h15.719V448.431z
			 M141.653,487.851h-36.7V468.08h16.928L141.653,487.851z M256,228.616c15.167,0,27.508,12.341,27.508,27.508
			c0,15.168-12.341,27.508-27.508,27.508c-15.168,0-27.508-12.34-27.508-27.508C228.492,240.957,240.833,228.616,256,228.616z
			 M246.302,487.851h-15.719v-14.08h15.719V487.851z M246.302,454.123h-15.719v-26.854h15.719V454.123z M281.669,487.851H265.95
			v-14.08h15.719V487.851z M281.669,454.123H265.95v-26.854h15.719V454.123z M301.193,407.621h-9.699h-35.368h-35.367h-9.95v-66.582
			c0-20.819,16.938-37.758,37.757-37.758h14.869c20.818,0,37.758,16.938,37.758,37.758V407.621L301.193,407.621z"/>
	</g>
</g>
</svg>
