<svg xmlns="http://www.w3.org/2000/svg" viewBox="0 0 65.54 65.54"><defs><style>.cls-1{fill:#fff;}</style></defs><title>makanan-tradisional</title><g id="Layer_2" data-name="Layer 2"><g id="Layer_2-2" data-name="Layer 2"><path class="cls-1" d="M54.19,11.46A1.28,1.28,0,0,0,56,9.66l-.06-.06a1.28,1.28,0,0,0-1.81,1.81Z"/><path class="cls-1" d="M60.16,14.76A1.28,1.28,0,0,0,58,16.17a30.21,30.21,0,1,1-8.31-8.42,1.28,1.28,0,0,0,1.44-2.12,32.76,32.76,0,1,0,9,9.13Z"/><path class="cls-1" d="M57.64,42.54a4.51,4.51,0,1,0-6.38-6.38,11.68,11.68,0,0,1-16.5,0,4.48,4.48,0,0,0-3.19-1.32h-.25a7,7,0,0,0,1.19-3.54L32.65,29a7,7,0,0,0-4.7-7,5.34,5.34,0,0,0-.66-7L26,13.74a5.34,5.34,0,0,0-5.81-1l-6.81,3a6,6,0,0,0-3.13,3.17l-.07.17a6,6,0,0,0,1,6.21,6.13,6.13,0,0,0-1.7,1.06l-.48.43A13.4,13.4,0,0,0,4.4,36.76,7.48,7.48,0,0,0,8.25,43.3l0,0a7.4,7.4,0,0,0,5.64.62h0A6.13,6.13,0,0,0,17.58,41a16.54,16.54,0,0,0,1.79-4.92,7,7,0,0,0,2,1.31l.83.35a7.06,7.06,0,0,0,5.06.17,4.51,4.51,0,0,0,1.1,4.6,20.58,20.58,0,0,0,12,5.88,4.53,4.53,0,0,0-1.25.44,11.68,11.68,0,0,1-15.74-4.94,4.51,4.51,0,1,0-8,4.17,20.56,20.56,0,0,0,4.43,5.74,1.28,1.28,0,1,0,1.72-1.9,18,18,0,0,1-3.88-5,1.95,1.95,0,1,1,3.46-1.8,14.23,14.23,0,0,0,19.19,6,1.95,1.95,0,1,1,1.8,3.46A18,18,0,0,1,28.63,55.9a1.28,1.28,0,0,0-.72,2.46,20.6,20.6,0,0,0,15.37-1.51,4.51,4.51,0,0,0-.62-8.26H43A20.62,20.62,0,0,0,57.64,42.54ZM12.51,20l.07-.17A3.4,3.4,0,0,1,14.37,18l6.81-3a2.79,2.79,0,0,1,3,.53l1.31,1.24a2.79,2.79,0,0,1-.9,4.63l-1.18.46a7,7,0,0,0-.82.32L16.9,24.5a3.41,3.41,0,0,1-4.4-4.5Zm4.61,13a14,14,0,0,1-1.77,6.8,3.59,3.59,0,0,1-2.13,1.71,4.82,4.82,0,0,1-3.67-.4l0,0A4.92,4.92,0,0,1,7,36.76a10.83,10.83,0,0,1,3.68-8.13l.48-.43a3.64,3.64,0,0,1,2.39-.9,3.6,3.6,0,0,1,3.6,3.61V33Zm6.12,2.43-.83-.35a4.48,4.48,0,0,1-2.73-4.13v-.24a4.46,4.46,0,0,1,.82-2.59l1.45-2.05a4.49,4.49,0,0,1,1.74-1.47l.58-.23a4.47,4.47,0,0,1,1.33-.2,4.5,4.5,0,0,1,4.49,4.74L30,31.17a4.48,4.48,0,0,1-1.76,3.32l-.49.37A4.5,4.5,0,0,1,23.23,35.42Zm7,5.31A1.95,1.95,0,1,1,33,38a14.24,14.24,0,0,0,20.12,0,1.95,1.95,0,1,1,2.76,2.76A18.14,18.14,0,0,1,30.2,40.73Z"/><path class="cls-1" d="M25,54.39a1.28,1.28,0,0,0-1.23,2.25l.07,0a1.28,1.28,0,0,0,1.22-2.25Z"/><path class="cls-1" d="M46.23,8.59a6.21,6.21,0,0,0-4.09,1.53,6.24,6.24,0,1,0-7.81,8.19A6.23,6.23,0,0,0,37,28.2a6.24,6.24,0,1,0,11.23,2.43l.53,0a6.24,6.24,0,0,0,2.38-12A6.23,6.23,0,0,0,46.23,8.59Zm0,2.56a3.68,3.68,0,1,1-3.68,3.68A3.68,3.68,0,0,1,46.23,11.15ZM32.66,12.41a3.68,3.68,0,1,1,3.68,3.68A3.68,3.68,0,0,1,32.66,12.41Zm2.77,9.91a3.68,3.68,0,1,1,7.35,0,3.73,3.73,0,0,1,0,.48q-.08.3-.13.61a3.68,3.68,0,0,1-7.19-1.08Zm6.68,13.13a3.68,3.68,0,1,1,3.68-3.68A3.68,3.68,0,0,1,42.11,35.46Zm10.34-11a3.68,3.68,0,0,1-7.35,0,3.63,3.63,0,0,1,0-.48,6.09,6.09,0,0,0,.13-.61,3.68,3.68,0,0,1,7.19,1.08Z"/></g></g></svg>