<?xml version="1.0" encoding="utf-8"?>
<!-- Generator: Adobe Illustrator 16.0.0, SVG Export Plug-In . SVG Version: 6.00 Build 0)  -->
<!DOCTYPE svg PUBLIC "-//W3C//DTD SVG 1.1//EN" "http://www.w3.org/Graphics/SVG/1.1/DTD/svg11.dtd">
<svg version="1.1" id="Layer_1" xmlns="http://www.w3.org/2000/svg" xmlns:xlink="http://www.w3.org/1999/xlink" x="0px" y="0px"
	 width="512px" height="512px" viewBox="0 0 512 512" enable-background="new 0 0 512 512" xml:space="preserve">
<g>
	<path fill="#FFFFFF" d="M42.32,210.519h92.163c4.046,0,7.324-3.277,7.324-7.324s-3.278-7.325-7.324-7.325H42.32
		c-4.043,0-7.325,3.278-7.325,7.325S38.277,210.519,42.32,210.519z"/>
	<path fill="#FFFFFF" d="M42.32,263.04h92.163c4.046,0,7.324-3.278,7.324-7.325c0-4.042-3.278-7.324-7.324-7.324H42.32
		c-4.043,0-7.325,3.282-7.325,7.324C34.994,259.761,38.277,263.04,42.32,263.04z"/>
	<path fill="#FFFFFF" d="M134.487,315.552c4.042,0,7.324-3.278,7.324-7.325c0-4.046-3.282-7.324-7.324-7.324H42.32
		c-4.043,0-7.325,3.278-7.325,7.324c0,4.047,3.282,7.325,7.325,7.325H134.487z"/>
	<path fill="#FFFFFF" d="M42.32,158.004h92.163c4.046,0,7.324-3.278,7.324-7.324c0-4.043-3.278-7.325-7.324-7.325H42.32
		c-4.043,0-7.325,3.282-7.325,7.325C34.994,154.725,38.277,158.004,42.32,158.004z"/>
	<path fill="#FFFFFF" d="M217.269,314.411H268.4c4.046,0,7.324-3.282,7.324-7.324c0-4.047-3.278-7.325-7.324-7.325h-51.131
		c-4.046,0-7.324,3.278-7.324,7.325C209.945,311.129,213.223,314.411,217.269,314.411z"/>
	<path fill="#FFFFFF" d="M217.269,357.792h29.684c4.043,0,7.325-3.278,7.325-7.325c0-4.042-3.282-7.324-7.325-7.324h-29.684
		c-4.046,0-7.324,3.282-7.324,7.324C209.945,354.513,213.223,357.792,217.269,357.792z"/>
	<path fill="#FFFFFF" d="M238.778,389.952h-21.509c-4.046,0-7.324,3.278-7.324,7.324c0,4.043,3.278,7.325,7.324,7.325h21.509
		c4.047,0,7.324-3.282,7.324-7.325C246.102,393.23,242.824,389.952,238.778,389.952z"/>
	<path fill="#FFFFFF" d="M217.269,267.601h49.091c4.043,0,7.325-3.278,7.325-7.325c0-4.042-3.282-7.324-7.325-7.324h-49.091
		c-4.046,0-7.324,3.282-7.324,7.324C209.945,264.323,213.223,267.601,217.269,267.601z"/>
	<path fill="#FFFFFF" d="M217.269,221.936h49.091c4.043,0,7.325-3.278,7.325-7.325c0-4.046-3.282-7.324-7.325-7.324h-49.091
		c-4.046,0-7.324,3.278-7.324,7.324C209.945,218.658,213.223,221.936,217.269,221.936z"/>
	<path fill="#FFFFFF" d="M472.541,313.015c-1.559-9.977-10.174-17.318-20.274-17.275h-14.642v-13.704
		c0.082-18.574-9.777-35.772-25.851-45.085c-16.073-9.308-35.901-9.308-51.975,0c-16.073,9.313-25.936,26.511-25.855,45.085v13.704
		h-14.638c-0.83,0.003-1.659,0.058-2.482,0.163V168.26c0-3.836-3.114-6.951-6.95-6.951h-13.354v-29.26
		c0-3.839-3.115-6.95-6.951-6.95h-21.953v-12.691c0-3.84-3.11-6.951-6.951-6.951c-3.839,0-6.95,3.111-6.95,6.951v12.691h-22.496
		c-3.836,0-6.951,3.111-6.951,6.95v29.26h-15.91v-37.397c0-3.835-3.115-6.95-6.951-6.95h-24.951V87.208
		c0-3.84-3.114-6.951-6.951-6.951h-53.363V61.923c0-3.836-3.111-6.95-6.951-6.95c-3.835,0-6.95,3.114-6.95,6.95v18.334H51.01
		c-3.84,0-6.951,3.111-6.951,6.951v29.753H19.107c-3.839,0-6.95,3.115-6.95,6.95v328.044c0,3.837,3.111,6.951,6.95,6.951h254.505
		c0.854,18.206,15.849,32.538,34.078,32.562h156.193c18.831-0.023,34.093-15.282,34.116-34.117c0-0.403-0.034-0.81-0.108-1.209
		L472.541,313.015z M347.847,282.036c-0.07-13.602,7.148-26.196,18.916-33.018c11.764-6.82,26.281-6.82,38.049,0
		c11.769,6.822,18.982,19.417,18.913,33.018v13.704h-75.878V282.036z M238.17,138.999h44.45v22.31h-44.45V138.999z M302.924,175.21
		v136.141l2.184-9.93c-3.238,3.096-5.372,7.168-6.074,11.598l-23.38,131.986h-67.295V175.21H302.924z M57.96,94.158h104.595v22.803
		H57.96V94.158z M26.058,130.862h168.403v314.144h-40.792v-65.639c0-3.839-3.115-6.95-6.95-6.95h-37.045
		c-0.159-0.012-0.318-0.026-0.481-0.026c-0.159,0-0.322,0.015-0.481,0.026H73.797c-3.836,0-6.951,3.111-6.951,6.95v65.643H26.058
		V130.862z M116.143,386.318h23.625v58.691h-23.625V386.318z M102.242,445.01H80.746v-58.691h21.496V445.01z M463.884,477.567
		H307.691c-10.938-0.012-19.89-8.715-20.207-19.646l25.25-142.54c0.007-0.047,0.015-0.094,0.02-0.137
		c0.495-3.234,3.285-5.615,6.554-5.604h14.643v22.679c0,3.84,3.11,6.951,6.95,6.951c3.836,0,6.951-3.111,6.951-6.951V309.64h75.878
		v22.679c0,3.836,3.11,6.951,6.949,6.951c3.841,0,6.951-3.115,6.951-6.951V309.64h14.638c3.274-0.016,6.062,2.37,6.556,5.604
		c0.007,0.043,0.016,0.09,0.023,0.133l25.25,142.541C483.774,468.852,474.826,477.555,463.884,477.567z"/>
	<path fill="#FFFFFF" d="M400.808,359.174h-10.901v-10.901c0-2.833-2.297-5.13-5.13-5.13s-5.13,2.297-5.13,5.13v10.901h-10.901
		c-2.833,0-5.13,2.297-5.13,5.13s2.297,5.13,5.13,5.13h10.901v10.901c0,2.833,2.297,5.13,5.13,5.13s5.13-2.297,5.13-5.13v-10.901
		h10.901c2.833,0,5.13-2.297,5.13-5.13S403.641,359.174,400.808,359.174z"/>
	<path fill="#FFFFFF" d="M400.809,424.344h-10.902v-10.901c0-2.833-2.297-5.13-5.13-5.13s-5.13,2.297-5.13,5.13v10.901h-10.901
		c-2.833,0-5.13,2.297-5.13,5.131c0,2.832,2.297,5.129,5.13,5.129h10.901v10.901c0,2.833,2.297,5.13,5.13,5.13s5.13-2.297,5.13-5.13
		v-10.901h10.902c2.832,0,5.129-2.297,5.129-5.129C405.938,426.64,403.641,424.344,400.809,424.344z"/>
	<path fill="#FFFFFF" d="M459.275,113.209c-1.627-15.967-15.363-28.416-31.451-28.416c-7.688,0-15.097,2.797-20.861,7.877
		c-0.535,0.473-1.071,0.988-1.645,1.583l-0.003-0.017l-0.015,0.016c-2.677-14.93-15.871-26.063-31.115-26.063
		c-7.688,0-15.097,2.797-20.861,7.877c-4.453,3.926-7.808,9.216-9.473,14.93c-14.134,1.075-25.153,12.937-25.153,27.16
		c0,15.02,12.22,27.239,27.239,27.239h28.567C378.8,155.494,388.604,162,399.575,162h56.542c13.508,0,24.497-10.99,24.497-24.498
		C480.615,125.165,471.469,114.793,459.275,113.209z M372.34,135.033h-26.403c-9.306,0-16.877-7.57-16.877-16.876
		s7.571-16.876,16.877-16.876c0.492,0,1.016,0.027,1.599,0.082c2.79,0.281,5.255-1.736,5.627-4.458
		c0.688-5.042,3.179-9.683,7.016-13.065c3.868-3.41,8.843-5.288,14.007-5.288c11.717,0,21.249,9.532,21.249,21.249
		c0,0.395-0.03,0.801-0.066,1.295l-0.015,0.217c-0.109,1.527,0.459,3.017,1.561,4.088c0.309,0.3,0.653,0.559,1.026,0.773
		l-0.007,0.019l0.003,0.001c-0.16,0.467-0.31,0.938-0.446,1.407c-14.134,1.075-25.153,12.937-25.153,27.16
		C372.336,134.851,372.337,134.942,372.34,135.033z M413.889,100.396l0.262-0.221c3.826-3.238,8.682-5.021,13.673-5.021
		c11.717,0,21.249,9.532,21.249,21.249c0,0.395-0.03,0.801-0.066,1.295l-0.015,0.217c-0.109,1.527,0.459,3.017,1.561,4.088
		c1.1,1.065,2.579,1.587,4.124,1.436c0.486-0.049,0.979-0.074,1.462-0.074c7.782,0,14.113,6.341,14.113,14.136
		c0,7.794-6.341,14.135-14.134,14.135h-56.542c-5.388,0-10.501-2.629-13.68-7.033c-1.921-2.662-3.014-5.806-3.159-9.094
		l-0.017-0.291c-0.011-0.152-0.021-0.304-0.021-0.458c0-9.306,7.571-16.876,16.877-16.876c0.492,0,1.016,0.027,1.6,0.082
		c2.796,0.276,5.255-1.74,5.626-4.458c0.273-2.007,0.855-3.996,1.729-5.911c1.262-2.767,3.041-5.173,5.286-7.153
		c0.021-0.019,0.043-0.035,0.064-0.052L413.889,100.396z"/>
</g>
</svg>
