<?xml version="1.0" encoding="utf-8"?>
<!-- Generator: Adobe Illustrator 16.0.0, SVG Export Plug-In . SVG Version: 6.00 Build 0)  -->
<!DOCTYPE svg PUBLIC "-//W3C//DTD SVG 1.1//EN" "http://www.w3.org/Graphics/SVG/1.1/DTD/svg11.dtd">
<svg version="1.1" id="Layer_3" xmlns="http://www.w3.org/2000/svg" xmlns:xlink="http://www.w3.org/1999/xlink" x="0px" y="0px"
	 width="512px" height="512px" viewBox="0 0 512 512" enable-background="new 0 0 512 512" xml:space="preserve">
<path fill="none" stroke="#FFFFFF" stroke-width="16" stroke-miterlimit="10" d="M588.006,347.245"/>
<path fill="#FFFFFF" d="M468.156,3.502H160.188c-23.074,0-41.846,18.771-41.846,41.845v183.744
	C53.25,236.462,2.5,291.852,2.5,358.884c0,69.567,54.663,126.603,123.293,130.424c7.56,10.898,20.155,18.052,34.395,18.052h307.969
	c23.072,0,41.844-18.771,41.844-41.845V45.346C510,22.273,491.229,3.502,468.156,3.502z M271.054,19.361h86.235v21.337
	c0,4.492-3.654,8.147-8.146,8.147H279.2c-4.493,0-8.146-3.655-8.146-8.147V19.361z M231.406,19.361h23.789v21.337
	c0,13.237,10.769,24.006,24.006,24.006h69.942c13.236,0,24.006-10.769,24.006-24.006V19.361h23.789v55.038
	c0,4.492-3.654,8.147-8.146,8.147H239.552c-4.492,0-8.146-3.655-8.146-8.147V19.361z M350.998,98.406
	c-3.711,16.422-18.408,28.727-35.937,28.727s-32.226-12.305-35.937-28.727H350.998z M133.135,244.108
	c14.848,0,29.045,2.834,42.082,7.99l-12.702-0.129c-0.284-0.013-0.634-0.023-1.037-0.023c-3.354,0-8.269,0.641-12.637,3.691
	c-4.852,3.387-7.009,8.847-7.775,11.326l-7.685,22.856l-6.685-21.305c-0.007-0.021-0.014-0.043-0.021-0.064
	c-0.634-1.985-3.143-8.789-8.798-12.984c-5.666-4.203-12.431-4.657-15.076-4.657c-0.002,0-0.003,0-0.005,0l-8.076-0.082
	C106.738,246.446,119.667,244.108,133.135,244.108z M380.614,262.206c-3.86,33.247-32.176,59.146-66.442,59.146
	c-34.266,0-62.581-25.898-66.441-59.146H380.614z M247.773,246.346c4.012-33.085,32.249-58.809,66.398-58.809
	c34.15,0,62.388,25.724,66.399,58.809H247.773z M156.592,471.245l11.757-8.361c2.031-1.332,6.988-5.059,9.552-11.087
	c2.616-6.152,1.176-13.035,0.437-15.709c-0.039-0.141-0.081-0.279-0.124-0.419l-7.591-24.192l20.324,15.083
	c1.974,1.58,7.283,5.269,13.832,5.269c0.191,0,0.383-0.004,0.574-0.01c6.292-0.206,11.432-3.552,13.049-4.727l13.291-9.452
	C215.486,444.722,188.441,464.604,156.592,471.245z M136.693,469.584c0,0-2.978,2.205-5.929,2.301
	c-0.052,0.002-0.104,0.003-0.155,0.003c-2.893,0-5.917-2.556-5.917-2.556l-25.083-18.615c0,0-4.047-2.707-4.42-5.233
	c-0.371-2.507,0.475-4.896,0.475-4.896l10.697-31.819c0,0,0.991-3.368,2.876-4.686c1.737-1.213,4.134-1.37,5.258-1.37
	c0.393,0,0.63,0.02,0.63,0.02l30.423,0.309c0,0,0.016,0,0.047,0c0.485,0,4.624,0.062,7.398,2.121
	c2.76,2.048,4.201,6.556,4.201,6.556l8.725,27.809c0,0,1.261,4.555,0.124,7.228c-1.39,3.27-4.918,5.456-4.918,5.456L136.693,469.584
	z M96.981,346.491c0.907-2.711,3.924-4.593,3.924-4.593l24.614-17.883c0,0,3.568-2.733,7.242-2.733c3.438,0,7.282,2.762,7.282,2.762
	l1.18,0.857l22.533,16.722c0.421,0.337,1.002,0.772,1.706,1.245c1.046,1.092,2.213,2.573,2.566,4.036
	c0.832,3.453-0.699,7.312-0.699,7.312l-4.319,13.291l-5.371,15.978c-0.095,0.275-0.218,0.661-0.351,1.137
	c-0.557,1.136-1.419,2.538-2.615,3.487c-1.793,1.424-4.675,1.581-5.86,1.581c-0.337,0-0.537-0.012-0.537-0.012h-31.236
	c0,0-0.212,0.01-0.563,0.01c-1.333,0-4.676-0.148-6.105-1.577c-1.791-1.793-2.535-4.214-2.535-4.214l-2.791-8.589l-6.398-20.392
	c-0.007-0.022-0.014-0.044-0.021-0.066c-0.21-0.658-0.632-1.851-1.301-3.297C97.032,350.602,96.408,348.205,96.981,346.491z
	 M210.865,416.639c0,0-2.977,2.203-5.93,2.3c-0.052,0.002-0.104,0.003-0.157,0.003c-2.893,0-5.916-2.555-5.916-2.555l-25.083-18.615
	c0,0-4.046-2.708-4.42-5.234c-0.208-1.404-0.033-2.754,0.16-3.686c0.397-0.938,0.667-1.716,0.826-2.223l4.906-15.099l5.281-15.709
	c0,0,0.99-3.367,2.876-4.684c1.736-1.213,4.131-1.371,5.256-1.371c0.394,0,0.632,0.02,0.632,0.02l30.423,0.309c0,0,0.016,0,0.046,0
	c0.479,0,4.623,0.061,7.398,2.122c2.761,2.048,4.202,6.556,4.202,6.556l8.725,27.809c0,0,1.26,4.552,0.124,7.227
	c-1.391,3.27-4.918,5.457-4.918,5.457L210.865,416.639z M247.591,367.443l-3.93-12.527c-0.007-0.022-0.014-0.044-0.021-0.066
	c-0.634-1.984-3.144-8.786-8.797-12.98c-5.664-4.205-12.431-4.659-15.077-4.659c-0.001,0-0.003,0-0.004,0l-21.293-0.216
	l16.862-11.99c2.029-1.332,6.988-5.059,9.552-11.087c2.615-6.154,1.176-13.036,0.437-15.71c-0.039-0.141-0.081-0.279-0.124-0.419
	l-3.841-12.243c16.574,19.902,26.557,45.476,26.557,73.339C247.91,361.762,247.801,364.617,247.591,367.443z M220.903,262.206
	h10.878c0.458,4.894,1.359,9.656,2.634,14.266C230.27,271.387,225.755,266.615,220.903,262.206z M192.529,265.159
	c0,0,0.016,0,0.046,0c0.479,0,4.622,0.062,7.399,2.122c2.76,2.047,4.201,6.555,4.201,6.555l8.725,27.81c0,0,1.261,4.555,0.125,7.228
	c-1.39,3.269-4.918,5.456-4.918,5.456l-24.431,17.373c0,0-2.978,2.205-5.93,2.301c-0.052,0.002-0.104,0.003-0.157,0.003
	c-1.445,0-2.922-0.638-4.039-1.275c-0.779-0.729-1.479-1.31-2-1.717c-0.116-0.091-0.234-0.18-0.353-0.266l-22.35-16.236
	l-2.257-1.676c0,0-4.045-2.708-4.419-5.233c-0.371-2.507,0.475-4.896,0.475-4.896l10.697-31.82c0,0,0.991-3.368,2.876-4.685
	c1.738-1.214,4.137-1.371,5.261-1.371c0.391,0,0.627,0.02,0.627,0.02L192.529,265.159z M52.872,301.243l10.697-31.821
	c0,0,0.389-1.321,1.142-2.632c1.46-1.088,2.947-2.142,4.459-3.161c1.007-0.214,1.943-0.262,2.531-0.262
	c0.394,0,0.632,0.02,0.632,0.02l30.423,0.308c0,0,0.016,0,0.046,0c0.479,0,4.622,0.062,7.399,2.121
	c2.76,2.048,4.201,6.557,4.201,6.557l8.725,27.808c0,0,1.261,4.555,0.124,7.229c-1.39,3.269-4.918,5.455-4.918,5.455l-24.43,17.373
	c0,0-2.978,2.206-5.93,2.301c-0.052,0.002-0.104,0.003-0.157,0.003c-2.892,0-5.915-2.554-5.915-2.554l-25.083-18.614
	c0,0-4.046-2.709-4.42-5.235C52.026,303.63,52.872,301.243,52.872,301.243z M18.573,365.796c-0.136-2.287-0.214-4.591-0.214-6.912
	c0-27.52,9.739-52.805,25.946-72.6l-3.63,10.799c-0.496,1.446-1.779,5.859-1.026,10.941c1.022,6.9,6.387,11.576,9.703,13.854
	l20.594,15.282l-25.25-0.256c-0.286-0.014-0.639-0.023-1.044-0.023c-3.354,0-8.27,0.641-12.639,3.694
	c-4.846,3.385-7.003,8.845-7.769,11.322L18.573,365.796z M24.348,392.538c-0.37-2.506,0.476-4.894,0.476-4.894l10.696-31.822
	c0,0,0.991-3.367,2.877-4.684c1.736-1.213,4.131-1.371,5.256-1.371c0.394,0,0.631,0.02,0.631,0.02l30.424,0.309c0,0,0.015,0,0.046,0
	c0.479,0,4.623,0.061,7.399,2.122c1.424,1.057,2.494,2.766,3.198,4.175l7.424,22.849l2.303,7.341c0,0,1.26,4.552,0.124,7.227
	c-1.391,3.27-4.918,5.457-4.918,5.457l-24.431,17.374c0,0-2.977,2.203-5.93,2.3c-0.052,0.002-0.104,0.003-0.157,0.003
	c-2.892,0-5.916-2.555-5.916-2.555l-25.083-18.615C28.768,397.772,24.722,395.064,24.348,392.538z M35.104,418.521l10.832,8.038
	c1.974,1.581,7.284,5.269,13.832,5.269c0.192,0,0.383-0.004,0.575-0.01c6.289-0.206,11.428-3.55,13.046-4.726l17.37-12.353
	l-7.292,21.691c-0.495,1.443-1.777,5.855-1.026,10.937c1.021,6.903,6.387,11.579,9.704,13.856l11.61,8.616
	C74.824,462.173,50.338,443.469,35.104,418.521z M160.188,491.5c-4.267,0-8.292-1.042-11.847-2.872
	c25.299-2.946,48.415-13.146,67.206-28.465V491.5H160.188z M357.289,491.5h-86.235v-21.337c0-4.492,3.653-8.146,8.146-8.146h69.942
	c4.492,0,8.146,3.654,8.146,8.146V491.5z M396.938,491.5h-23.789v-21.337c0-13.237-10.77-24.006-24.006-24.006H279.2
	c-13.237,0-24.006,10.769-24.006,24.006V491.5h-23.789v-46.645c4.529-5.17,8.655-10.7,12.334-16.54h145.051
	c4.492,0,8.146,3.654,8.146,8.146V491.5z M278.877,412.456c3.256-17.013,18.238-29.911,36.185-29.911s32.929,12.898,36.185,29.911
	H278.877z M494.141,465.514c0,14.328-11.656,25.985-25.984,25.985h-55.359v-55.038c0-13.237-10.77-24.006-24.006-24.006h-21.492
	c-3.409-25.794-25.527-45.771-52.237-45.771s-48.828,19.977-52.237,45.771h-10.552c7.384-16.356,11.497-34.492,11.497-53.572
	c0-16.333-3.022-31.971-8.521-46.396c15.017,15.249,35.878,24.723,58.922,24.723c43.019,0,78.464-32.994,82.391-75.005h97.579
	V465.514z M494.141,246.346h-97.605c-4.083-41.851-39.459-74.668-82.364-74.668c-42.904,0-78.28,32.818-82.364,74.668h-32.405
	c-19.154-11.321-41.429-17.893-65.2-18.085V45.346c0-14.329,11.658-25.985,25.986-25.985h55.359v55.038
	c0,13.237,10.769,24.006,24.006,24.006h23.428c3.917,25.221,25.779,44.586,52.081,44.586s48.164-19.365,52.081-44.586h21.648
	c13.236,0,24.006-10.769,24.006-24.006V19.361h55.359c14.328,0,25.984,11.657,25.984,25.985V246.346z"/>
</svg>
