<?xml version="1.0"?>
<svg xmlns="http://www.w3.org/2000/svg" height="512px" viewBox="-15 0 495 496" width="512px"><path d="m464.5 304h-32v-113.136719c13.769531-3.574219 24-16 24-30.863281v-144h-80v-16h-288v16h-80v144c0 14.863281 10.230469 27.289062 24 30.863281v113.136719h-32v48h16v144h432v-144h16zm-64 0v-123.054688c4.167969 4.773438 9.679688 8.277344 16 9.917969v113.136719zm-248-192v32h-32v-32zm224 64c-8.824219 0-16-7.175781-16-16h32c0 8.824219-7.175781 16-16 16zm-64-32v-32h32v32zm32 16c0 8.824219-7.175781 16-16 16s-16-7.175781-16-16zm-48-16h-32v-32h32zm0 16c0 8.824219-7.175781 16-16 16s-16-7.175781-16-16zm-48-16h-32v-32h32zm0 16c0 8.824219-7.175781 16-16 16s-16-7.175781-16-16zm-48-16h-32v-32h32zm0 16c0 8.824219-7.175781 16-16 16s-16-7.175781-16-16zm-48 0c0 8.824219-7.175781 16-16 16s-16-7.175781-16-16zm-80 0h32c0 8.824219-7.175781 16-16 16s-16-7.175781-16-16zm8 30.863281c2.574219.671875 5.222656 1.136719 8 1.136719 9.609375 0 18.128906-4.335938 24-11.054688 5.871094 6.71875 14.390625 11.054688 24 11.054688s18.128906-4.335938 24-11.054688c5.871094 6.71875 14.390625 11.054688 24 11.054688s18.128906-4.335938 24-11.054688c5.871094 6.71875 14.390625 11.054688 24 11.054688s18.128906-4.335938 24-11.054688c5.871094 6.71875 14.390625 11.054688 24 11.054688s18.128906-4.335938 24-11.054688c5.871094 6.71875 14.390625 11.054688 24 11.054688s18.128906-4.335938 24-11.054688c5.871094 6.71875 14.390625 11.054688 24 11.054688 2.777344 0 5.425781-.464844 8-1.136719v113.136719h-304zm344-14.863281c-8.824219 0-16-7.175781-16-16h32c0 8.824219-7.175781 16-16 16zm16-32h-32v-112h32zm-48-112v112h-32v-32h16v-80zm-288-16h256v80h-256zm0 96v32h-32v-112h16v80zm-48-80v112h-32v-112zm-32 128h32c0 8.824219-7.175781 16-16 16s-16-7.175781-16-16zm24 30.863281c6.320312-1.640625 11.832031-5.144531 16-9.917969v123.054688h-16zm384 177.136719h-16v16h16v96h-400v-96h16v-16h-16v-16h400zm16-32h-432v-16h432zm0 0" fill="#FFFFFF"/><path d="m144.5 32c-13.230469 0-24 10.769531-24 24s10.769531 24 24 24 24-10.769531 24-24-10.769531-24-24-24zm0 32c-4.414062 0-8-3.59375-8-8s3.585938-8 8-8 8 3.59375 8 8-3.585938 8-8 8zm0 0" fill="#FFFFFF"/><path d="m184.5 32h160v16h-160zm0 0" fill="#FFFFFF"/><path d="m184.5 64h160v16h-160zm0 0" fill="#FFFFFF"/><path d="m64.5 368h336v16h-336zm0 0" fill="#FFFFFF"/></svg>
