<?xml version="1.0" encoding="utf-8"?>
<!-- Generator: Adobe Illustrator 16.0.0, SVG Export Plug-In . SVG Version: 6.00 Build 0)  -->
<!DOCTYPE svg PUBLIC "-//W3C//DTD SVG 1.1//EN" "http://www.w3.org/Graphics/SVG/1.1/DTD/svg11.dtd">
<svg version="1.1" id="Layer_1" xmlns="http://www.w3.org/2000/svg" xmlns:xlink="http://www.w3.org/1999/xlink" x="0px" y="0px"
	 width="512px" height="512px" viewBox="0 0 512 512" enable-background="new 0 0 512 512" xml:space="preserve">
<path fill="#FFFFFF" d="M379.749,454.748c-2.464,0-4.884,1.002-6.627,2.745c-1.743,1.749-2.748,4.166-2.748,6.63
	s0.999,4.884,2.748,6.627c1.743,1.743,4.163,2.748,6.627,2.748s4.887-1.005,6.624-2.748c1.749-1.743,2.751-4.163,2.751-6.627
	s-1.002-4.887-2.751-6.63C384.63,455.75,382.213,454.748,379.749,454.748z"/>
<path fill="#FFFFFF" d="M493.957,458.284l-69.694-87.571c-1.406-1.764-3.41-2.965-5.634-3.375
	c-0.311-0.062-31.781-5.959-75.252-20.098c-29.124-9.475-53.171-9.416-71.461,0.179c-6.938,3.642-12.067,8.191-15.8,12.565
	c-3.727-4.374-8.859-8.924-15.794-12.565c-18.293-9.595-42.334-9.653-71.467-0.179c-43.467,14.139-74.94,20.036-75.248,20.095
	c-2.227,0.41-4.225,1.614-5.631,3.378l-69.694,87.571c-2.244,2.818-2.672,6.665-1.113,9.911c1.564,3.24,4.846,5.303,8.446,5.303
	h199.918c4.014,13.014,16.157,22.5,30.478,22.5c14.323,0,26.467-9.486,30.48-22.5h55.447c5.174,0,9.375-4.201,9.375-9.375
	c0-5.18-4.201-9.375-9.375-9.375h-57.056l-18.425-18.428c2.353-4.731,8.109-13.767,19.922-19.963
	c18.217-9.551,43.55-9.158,75.302,1.169c49.286,16.031,86.083,23.874,96.536,25.96l8.962,11.262h-49.307
	c-5.177,0-9.375,4.195-9.375,9.375c0,5.174,4.198,9.375,9.375,9.375h68.748c3.601,0,6.882-2.062,8.443-5.303
	C496.629,464.949,496.198,461.102,493.957,458.284z M100.501,385.086c9.498-1.937,37.386-8.057,74.155-20.016
	c25.562-8.317,46.213-8.118,59.73,0.565c7.875,5.062,11.268,11.59,12.357,14.139v28.184c-3.442-2.924-7.465-5.733-12.179-8.203
	c-22.854-11.991-53.071-12.006-89.809-0.059c-29.555,9.612-54.803,16.269-72.144,20.429L100.501,385.086z M54.022,443.486
	c10.45-2.086,47.247-9.929,96.536-25.957c31.505-10.251,56.703-10.711,74.894-1.38c12.021,6.167,17.842,15.146,20.259,20.001
	l-18.595,18.598H45.06L54.022,443.486z M256.011,477.248c-6.797,0-12.404-5.188-13.066-11.81l13.055-13.058l13.081,13.081
	C268.406,472.074,262.805,477.248,256.011,477.248z M367.483,399.699c-36.738-11.95-66.955-11.933-89.807,0.056
	c-4.717,2.47-8.742,5.282-12.182,8.203v-28.207c1.178-2.754,5.235-10.535,15.129-15.727c13.459-7.058,33.152-6.694,56.956,1.046
	c36.773,11.959,64.658,18.079,74.159,20.016l27.891,35.048C422.303,415.976,397.067,409.323,367.483,399.699z"/>
<path fill="#FFFFFF" d="M66.927,333.819c1.093,4.222,4.898,7.025,9.07,7.025c0.776,0,1.567-0.097,2.355-0.302
	c5.013-1.298,8.021-6.413,6.727-11.426L34.454,133.651c-1.301-5.013-6.419-8.024-11.426-6.727
	c-5.013,1.298-8.024,6.416-6.727,11.426L66.927,333.819z"/>
<path fill="#FFFFFF" d="M433.65,340.543c0.785,0.205,1.576,0.302,2.353,0.302c4.172,0,7.978-2.804,9.073-7.025L495.7,138.35
	c1.295-5.01-1.714-10.128-6.729-11.426c-5.013-1.298-10.125,1.714-11.426,6.727L426.92,329.117
	C425.625,334.13,428.634,339.245,433.65,340.543z"/>
<path fill="#FFFFFF" d="M110.348,46.614c5.177,0,9.375-4.201,9.375-9.375V25.377c0-5.174-4.198-9.375-9.375-9.375
	c-5.174,0-9.375,4.201-9.375,9.375v11.862C100.973,42.413,105.174,46.614,110.348,46.614z"/>
<path fill="#FFFFFF" d="M110.348,103.447c5.177,0,9.375-4.198,9.375-9.375V82.213c0-5.177-4.198-9.375-9.375-9.375
	c-5.174,0-9.375,4.198-9.375,9.375v11.859C100.973,99.249,105.174,103.447,110.348,103.447z"/>
<path fill="#FFFFFF" d="M132.836,69.099h11.859c5.177,0,9.375-4.195,9.375-9.375c0-5.177-4.198-9.375-9.375-9.375h-11.859
	c-5.177,0-9.375,4.198-9.375,9.375C123.461,64.904,127.659,69.099,132.836,69.099z"/>
<path fill="#FFFFFF" d="M76.003,69.099h11.859c5.177,0,9.375-4.195,9.375-9.375c0-5.177-4.198-9.375-9.375-9.375H76.003
	c-5.177,0-9.375,4.198-9.375,9.375C66.628,64.904,70.826,69.099,76.003,69.099z"/>
<path fill="#FFFFFF" d="M359.095,221.773c0-5.177-4.195-9.375-9.375-9.375c-5.177,0-9.375,4.198-9.375,9.375v11.859
	c0,5.177,4.198,9.372,9.375,9.372c5.18,0,9.375-4.195,9.375-9.372V221.773z"/>
<path fill="#FFFFFF" d="M349.72,269.234c-5.177,0-9.375,4.195-9.375,9.369v11.862c0,5.174,4.198,9.375,9.375,9.375
	c5.18,0,9.375-4.201,9.375-9.375v-11.862C359.095,273.429,354.9,269.234,349.72,269.234z"/>
<path fill="#FFFFFF" d="M372.208,246.743c-5.177,0-9.375,4.201-9.375,9.375c0,5.18,4.198,9.375,9.375,9.375h11.859
	c5.177,0,9.375-4.195,9.375-9.375c0-5.174-4.198-9.375-9.375-9.375H372.208z"/>
<path fill="#FFFFFF" d="M327.235,246.743h-11.862c-5.174,0-9.375,4.201-9.375,9.375c0,5.18,4.201,9.375,9.375,9.375h11.862
	c5.174,0,9.375-4.195,9.375-9.375C336.61,250.944,332.408,246.743,327.235,246.743z"/>
<path fill="#FFFFFF" d="M111.262,160.478c-3.53,0.513-6.463,2.985-7.564,6.381c-1.107,3.396-0.185,7.119,2.37,9.609l26.81,26.133
	l-6.331,36.899c-0.601,3.516,0.844,7.072,3.729,9.167c1.635,1.189,3.568,1.79,5.514,1.79c1.494,0,2.988-0.354,4.359-1.078
	l33.14-17.42l33.135,17.42c3.155,1.661,6.987,1.386,9.873-0.712c2.886-2.095,4.33-5.651,3.729-9.167l-6.328-36.899l26.807-26.133
	c2.558-2.49,3.478-6.214,2.373-9.609c-1.102-3.396-4.034-5.868-7.567-6.381l-37.046-5.382l-16.573-33.574
	c-1.576-3.196-4.837-5.227-8.402-5.227c-3.571,0-6.832,2.03-8.408,5.227l-16.566,33.574L111.262,160.478z M162.941,167.811
	l10.342-20.956l10.348,20.956c1.365,2.769,4.002,4.688,7.055,5.13l23.127,3.357l-16.734,16.315c-2.209,2.153-3.217,5.256-2.695,8.3
	l3.949,23.033l-20.684-10.875c-2.73-1.436-5.994-1.436-8.725,0l-20.688,10.875l3.952-23.033c0.524-3.044-0.486-6.146-2.695-8.3
	l-16.734-16.315l23.124-3.357C158.937,172.499,161.575,170.58,162.941,167.811z"/>
<path fill="#FFFFFF" d="M299.303,86.941l27.149,8.44l8.438,27.143c1.058,3.41,3.958,5.918,7.485,6.48
	c0.489,0.076,0.981,0.111,1.468,0.111c3.009,0,5.877-1.453,7.649-3.961l16.415-23.205l28.424,0.36
	c3.545,0.029,6.853-1.939,8.476-5.118c1.617-3.179,1.292-7.002-0.844-9.861l-17.004-22.784l9.132-26.924
	c1.146-3.375,0.272-7.113-2.25-9.639c-2.522-2.522-6.261-3.393-9.639-2.247l-26.921,9.129L334.5,17.862
	c-2.859-2.13-6.683-2.455-9.861-0.838c-3.182,1.623-5.165,4.904-5.121,8.476l0.363,28.424l-23.206,16.409
	c-2.915,2.062-4.406,5.602-3.85,9.123C293.385,82.983,295.896,85.884,299.303,86.941z M334.735,66.386
	c2.517-1.781,3.999-4.688,3.958-7.775l-0.182-14.358l11.511,8.587c2.47,1.846,5.692,2.358,8.616,1.365l13.597-4.608l-4.611,13.597
	c-0.99,2.921-0.478,6.144,1.368,8.616l8.587,11.511l-14.358-0.185c-0.041,0-0.082,0-0.123,0c-3.038,0-5.895,1.477-7.652,3.964
	l-8.291,11.722l-4.263-13.711c-0.917-2.947-3.223-5.256-6.167-6.17l-13.714-4.263L334.735,66.386z"/>
<path fill="#FFFFFF" d="M243.812,143.917c5.18,0,9.375-4.201,9.375-9.375V79.23c0-5.18-4.195-9.375-9.375-9.375
	c-5.174,0-9.375,4.195-9.375,9.375v55.312C234.437,139.716,238.635,143.917,243.812,143.917z"/>
<path fill="#FFFFFF" d="M243.812,54.284c2.464,0,4.887-1.005,6.63-2.751c1.743-1.743,2.745-4.16,2.745-6.624
	c0-2.47-1.002-4.887-2.745-6.63s-4.166-2.745-6.63-2.745s-4.884,0.999-6.627,2.745c-1.743,1.743-2.748,4.16-2.748,6.63
	c0,2.464,1.005,4.881,2.748,6.624S241.348,54.284,243.812,54.284z"/>
</svg>
