<?xml version="1.0" encoding="utf-8"?>
<!-- Generator: Adobe Illustrator 16.0.0, SVG Export Plug-In . SVG Version: 6.00 Build 0)  -->
<!DOCTYPE svg PUBLIC "-//W3C//DTD SVG 1.1//EN" "http://www.w3.org/Graphics/SVG/1.1/DTD/svg11.dtd">
<svg version="1.1" id="Capa_1" xmlns="http://www.w3.org/2000/svg" xmlns:xlink="http://www.w3.org/1999/xlink" x="0px" y="0px"
	 width="512px" height="512px" viewBox="0 0 512 512" enable-background="new 0 0 512 512" xml:space="preserve">
<g>
	<g>
		<path fill="#FFFFFF" d="M467.406,33.515c-11.574-20.555-33.418-33.515-57.327-33.515c-24.811,0-47.084,13.812-58.286,35.267
			c-4.363-1.262-8.903-1.91-13.474-1.91c-26.76,0-48.53,21.771-48.53,48.532c0,5.521,4.477,10,10,10h81.419c5.521,0,10-4.479,10-10
			c0-5.522-4.479-10-10-10h-69.61c4.061-10.815,14.507-18.532,26.723-18.532c4.87,0,9.682,1.253,13.913,3.624
			c2.604,1.458,5.727,1.677,8.507,0.599c2.782-1.08,4.938-3.347,5.876-6.181c6.214-18.78,23.681-31.397,43.464-31.397
			c18.183,0,34.648,10.771,41.952,27.441c1.68,3.833,5.574,6.198,9.741,5.971c0.562-0.033,1.125-0.057,1.694-0.057
			c12.216,0,22.664,7.717,26.724,18.532h-28.19c-5.522,0-10,4.478-10,10c0,5.521,4.478,10,10,10H502c5.522,0,10-4.479,10-10
			C512,56.454,492.332,35.527,467.406,33.515z"/>
	</g>
</g>
<g>
	<g>
		<path fill="#FFFFFF" d="M428.569,74.821c-1.858-1.859-4.438-2.93-7.068-2.93c-2.631,0-5.211,1.069-7.07,2.93
			c-1.86,1.86-2.93,4.44-2.93,7.07s1.068,5.21,2.93,7.069c1.859,1.859,4.439,2.931,7.07,2.931c2.63,0,5.21-1.07,7.068-2.931
			c1.86-1.859,2.932-4.439,2.932-7.069S430.43,76.681,428.569,74.821z"/>
	</g>
</g>
<g>
	<g>
		<path fill="#FFFFFF" d="M510.752,433.163l-149.004-269.6c-1.762-3.187-5.112-5.163-8.752-5.163c-3.641,0-6.992,1.978-8.752,5.163
			l-59.634,107.897l-20.232-31.047c-1.847-2.832-4.997-4.54-8.378-4.54s-6.532,1.708-8.378,4.54L131.257,418.971l-20.614-35.295
			h7.339c3.582,0,6.891-1.915,8.673-5.021c1.783-3.105,1.77-6.929-0.037-10.021l-23.54-40.308h4.889c3.582,0,6.89-1.915,8.673-5.021
			c1.783-3.106,1.77-6.929-0.038-10.021l-16.234-27.796l16.646-32.09l15.488,10.496c4.339,2.939,9.266,4.457,14.286,4.457
			c1.939,0,3.896-0.228,5.836-0.687c7.15-1.688,13.412-6.509,17.177-13.223l27.618-49.241c1.195-2.133,2.957-3.43,4.958-3.65
			c1.278-0.145,3.181,0.111,4.988,2.125c5.094,5.668,11.95,8.788,19.31,8.787c7.358,0,14.216-3.12,19.307-8.787l12.173-13.549
			l14.551,28.049c2.544,4.901,8.579,6.812,13.48,4.271c4.902-2.543,6.815-8.579,4.272-13.48l-21.204-40.876
			c0-0.002-0.001-0.003-0.001-0.004L212.87,59.396C211.15,56.082,207.727,54,203.993,54c-3.734,0-7.157,2.08-8.877,5.396
			L88.433,265.056l-9.402-16.099c-1.792-3.069-5.079-4.957-8.635-4.957c-3.555,0-6.843,1.888-8.635,4.957l-37.569,64.325
			c-1.807,3.094-1.82,6.915-0.038,10.021c1.783,3.105,5.092,5.021,8.674,5.021h4.889l-23.541,40.308
			c-1.807,3.093-1.821,6.915-0.038,10.021c1.783,3.106,5.091,5.021,8.673,5.021h7.339L1.365,432.959
			c-1.808,3.093-1.821,6.914-0.038,10.021C3.11,446.086,6.418,448,10,448h492c3.538,0,6.813-1.87,8.612-4.919
			C512.41,440.032,512.464,436.261,510.752,433.163z M203.992,85.719l44.318,85.436l-17.209,19.153
			c-1.267,1.409-2.799,2.154-4.43,2.154c-1.632,0-3.164-0.745-4.432-2.154c-5.755-6.404-13.795-9.552-22.069-8.637
			c-8.463,0.938-15.825,5.947-20.198,13.745l-27.618,49.242c-1.05,1.872-2.589,3.13-4.333,3.542
			c-1.022,0.242-2.601,0.29-4.304-0.864l-17.434-11.813L203.992,85.719z M27.42,428.002l28.783-49.282
			c1.807-3.093,1.82-6.915,0.038-10.021c-1.783-3.105-5.092-5.021-8.674-5.021h-7.339L63.77,323.37
			c1.808-3.093,1.821-6.915,0.038-10.021c-1.783-3.106-5.091-5.021-8.673-5.021h-4.889l20.147-34.497l20.148,34.497h-4.89
			c-3.582,0-6.89,1.915-8.673,5.021c-1.783,3.105-1.769,6.929,0.038,10.021l23.54,40.308h-7.339c-3.582,0-6.89,1.915-8.673,5.021
			c-1.783,3.106-1.77,6.93,0.038,10.021l28.783,49.282H27.42z M266,279.534l39.185,60.127H266V279.534z M149.245,428.002
			L246,279.534v67.156l-52.99,81.312H149.245z M216.882,428.002l39.117-60.024l39.117,60.024H216.882z M313.513,419.598
			l-39.061-59.938h39.061V419.598z M296.975,290.435l56.021-101.362l82.552,149.366c-0.898,3.002-2.886,5.345-5.574,6.473
			c-1.615,0.678-4.823,1.418-8.16-1.229l-39.498-31.327c-11.127-8.828-26.714-8.108-37.062,1.712l-20.314,19.277L296.975,290.435z
			 M333.513,428.002v-44.87l29.241,44.87H333.513z M386.626,428.002L386.626,428.002l-50.584-77.62l22.979-21.807
			c3.147-2.987,7.513-3.21,10.865-0.551l39.498,31.328c5.168,4.099,11.282,6.209,17.485,6.209c3.64,0,7.31-0.727,10.833-2.204
			c3.19-1.337,6.067-3.229,8.552-5.544l38.792,70.188H386.626L386.626,428.002z"/>
	</g>
</g>
<g>
	<g>
		<path fill="#FFFFFF" d="M140,460.002H64c-5.522,0-10,4.478-10,10c0,5.521,4.478,10,10,10h76c5.521,0,10-4.479,10-10
			C150,464.479,145.522,460.002,140,460.002z"/>
	</g>
</g>
<g>
	<g>
		<path fill="#FFFFFF" d="M501.896,460.002H373.737c-5.521,0-10,4.478-10,10c0,5.521,4.479,10,10,10h128.159c5.522,0,10-4.479,10-10
			C511.896,464.479,507.418,460.002,501.896,460.002z"/>
	</g>
</g>
<g>
	<g>
		<path fill="#FFFFFF" d="M339.994,492.002H211.005c-5.522,0-10,4.478-10,10c0,5.521,4.478,10,10,10h128.988c5.521,0,10-4.479,10-10
			C349.993,496.479,345.516,492.002,339.994,492.002z"/>
	</g>
</g>
<g>
	<g>
		<path fill="#FFFFFF" d="M179.069,494.931c-1.859-1.861-4.43-2.93-7.068-2.93c-2.63,0-5.21,1.068-7.07,2.93s-2.92,4.439-2.92,7.07
			c0,2.63,1.06,5.21,2.92,7.068c1.87,1.86,4.44,2.932,7.07,2.932c2.64,0,5.21-1.07,7.068-2.932c1.87-1.858,2.94-4.438,2.94-7.068
			C182.009,499.371,180.939,496.791,179.069,494.931z"/>
	</g>
</g>
<g>
	<g>
		<path fill="#FFFFFF" d="M83.454,0C76.419,0,69.688,2.084,64,5.896C58.311,2.084,51.58,0,44.545,0c-5.522,0-10,4.479-10,10
			c0,5.522,4.478,10,10,10c4.548,0,8.805,2.038,11.681,5.592c1.898,2.348,4.755,3.711,7.773,3.711c3.018,0,5.875-1.363,7.772-3.711
			C74.649,22.038,78.906,20,83.454,20c5.521,0,10-4.478,10-10C93.454,4.478,88.976,0,83.454,0z"/>
	</g>
</g>
<g>
	<g>
		<path fill="#FFFFFF" d="M127.999,64c-7.035,0-13.768,2.083-19.454,5.896C102.857,66.083,96.126,64,89.091,64
			c-5.522,0-10,4.479-10,10c0,5.522,4.478,10,10,10c4.548,0,8.805,2.038,11.681,5.592c1.898,2.348,4.756,3.711,7.774,3.711
			c3.018,0,5.875-1.364,7.772-3.712c2.875-3.553,7.133-5.591,11.681-5.591c5.521,0,10-4.478,10-10
			C137.999,68.478,133.521,64,127.999,64z"/>
	</g>
</g>
<g>
	<g>
		<path fill="#FFFFFF" d="M486.907,190.5c-7.034,0.001-13.766,2.084-19.454,5.896c-5.688-3.813-12.42-5.896-19.454-5.896
			c-5.521,0-10,4.479-10,10c0,5.522,4.479,10,10,10c4.549,0,8.807,2.038,11.681,5.591c1.898,2.348,4.756,3.711,7.772,3.711
			c0.001,0,0.001,0,0.001,0c3.019,0,5.875-1.363,7.773-3.71c2.876-3.554,7.133-5.592,11.681-5.592c5.522,0,10-4.478,10-10
			C496.907,194.978,492.43,190.5,486.907,190.5z"/>
	</g>
</g>
<g>
	<g>
		<path fill="#FFFFFF" d="M403.453,108.7c-7.033,0-13.766,2.083-19.453,5.896c-5.688-3.813-12.42-5.896-19.454-5.896
			c-5.522,0-10,4.479-10,10c0,5.522,4.478,10,10,10c4.548,0,8.805,2.038,11.681,5.591c1.898,2.348,4.755,3.71,7.773,3.71
			c3.018,0,5.875-1.362,7.772-3.71c2.876-3.553,7.133-5.591,11.681-5.591c5.522,0,10-4.478,10-10
			C413.453,113.178,408.976,108.7,403.453,108.7z"/>
	</g>
</g>
<g>
	<g>
		<path fill="#FFFFFF" d="M48.908,104.399c-7.035,0-13.767,2.083-19.453,5.896c-5.688-3.812-12.42-5.896-19.455-5.896
			c-5.522,0-10,4.478-10,10c0,5.521,4.477,10,10,10c4.549,0,8.806,2.038,11.682,5.591c1.898,2.347,4.756,3.71,7.774,3.71
			c3.018,0,5.875-1.364,7.772-3.711c2.874-3.553,7.131-5.59,11.68-5.59c5.521,0,10-4.479,10-10
			C58.908,108.877,54.43,104.399,48.908,104.399z"/>
	</g>
</g>
</svg>
