<svg xmlns="http://www.w3.org/2000/svg" viewBox="0 0 66.72 65.61"><defs><style>.cls-1{fill:#fff;}</style></defs><title>restoran-cafe</title><g id="Layer_2" data-name="Layer 2"><g id="Layer_2-2" data-name="Layer 2"><path class="cls-1" d="M59.47,42.47c-.06-.11-.13-.21-.2-.3a4.33,4.33,0,0,0-6-1L40.79,50h-13a1.11,1.11,0,0,1,0-2.22H35a3.9,3.9,0,0,0,3.89-3.89s0-.11,0-.13a3.91,3.91,0,0,0-4-3.77H20.47A5.58,5.58,0,0,0,17,41.32l-5.44,4.53a1.12,1.12,0,0,0-.4.86V60.05a1.11,1.11,0,0,0,1.11,1.11H39.82a7.8,7.8,0,0,0,5-1.79L58.26,48.23A4.37,4.37,0,0,0,59.47,42.47Zm-2.56,4L43.36,57.66a5.58,5.58,0,0,1-3.54,1.28H13.34V47.23l5-4.19a3.35,3.35,0,0,1,2.1-.78H35a1.7,1.7,0,0,1,1.72,1.67A1.67,1.67,0,0,1,35,45.59H27.8a3.34,3.34,0,0,0,0,6.67H41.15a1.13,1.13,0,0,0,.65-.21L54.52,43a2.11,2.11,0,0,1,3,.49l.09.14A2.16,2.16,0,0,1,56.91,46.47Z"/><path class="cls-1" d="M12.2,44.48H0v2.22H11.09V63.39H0v2.22H12.2a1.11,1.11,0,0,0,1.11-1.11V45.59A1.11,1.11,0,0,0,12.2,44.48Z"/><path class="cls-1" d="M5.56,54.49A3.34,3.34,0,1,0,8.9,57.83,3.34,3.34,0,0,0,5.56,54.49Zm0,4.45a1.11,1.11,0,1,1,1.11-1.11A1.11,1.11,0,0,1,5.56,58.94Z"/><path class="cls-1" d="M65.61,33.36H1.11A1.11,1.11,0,0,0,0,34.47a7.79,7.79,0,0,0,7.78,7.78H58.94a7.79,7.79,0,0,0,7.78-7.78A1.11,1.11,0,0,0,65.61,33.36ZM58.94,40H7.78a5.57,5.57,0,0,1-5.45-4.45h62A5.57,5.57,0,0,1,58.94,40Z"/><path class="cls-1" d="M33.36,4.45A29,29,0,0,0,4.45,33.36v1.11a1.11,1.11,0,0,0,1.11,1.11h55.6a1.11,1.11,0,0,0,1.11-1.11V33.36A29,29,0,0,0,33.36,4.45ZM6.67,33.36a26.69,26.69,0,0,1,53.38,0Z"/><path class="cls-1" d="M15.07,17.13a24.86,24.86,0,0,0-2.14,2.78l1.85,1.23a22.74,22.74,0,0,1,2-2.53Z"/><path class="cls-1" d="M33.36,8.9a24.38,24.38,0,0,0-16.74,6.64l1.52,1.62a22.16,22.16,0,0,1,15.22-6Z"/><rect class="cls-1" x="32.25" width="2.22" height="5.56"/></g></g></svg>