<?xml version="1.0" encoding="utf-8"?>
<!-- Generator: Adobe Illustrator 16.0.0, SVG Export Plug-In . SVG Version: 6.00 Build 0)  -->
<!DOCTYPE svg PUBLIC "-//W3C//DTD SVG 1.1//EN" "http://www.w3.org/Graphics/SVG/1.1/DTD/svg11.dtd">
<svg version="1.1" id="Layer_1" xmlns="http://www.w3.org/2000/svg" xmlns:xlink="http://www.w3.org/1999/xlink" x="0px" y="0px"
	 width="512px" height="512px" viewBox="0 0 512 512" enable-background="new 0 0 512 512" xml:space="preserve">
<path fill="#FFFFFF" d="M280.381,381.356c0,4.248-3.445,7.69-7.69,7.69c-4.247,0-7.69-3.442-7.69-7.69
	c0-4.245,3.443-7.688,7.69-7.688C276.936,373.668,280.381,377.111,280.381,381.356z"/>
<path fill="#FFFFFF" d="M23.072,237.115c4.246,0,8.203-3.442,8.203-7.69c0-4.246-3.958-7.688-8.203-7.688
	c-4.248,0-7.69,3.442-7.69,7.688C15.381,233.672,18.823,237.115,23.072,237.115z"/>
<path fill="#FFFFFF" d="M231.189,389.046c0,4.248-3.442,7.69-7.688,7.69c-4.248,0-7.69-3.442-7.69-7.69
	c0-4.246,3.443-7.688,7.69-7.688C227.747,381.357,231.189,384.8,231.189,389.046z"/>
<path fill="#FFFFFF" d="M114.487,185.696c0,4.248-3.445,7.69-7.691,7.69c-4.248,0-7.69-3.442-7.69-7.69
	c0-4.245,3.443-7.688,7.69-7.688C111.041,178.008,114.487,181.451,114.487,185.696z"/>
<path fill="#FFFFFF" d="M10.395,437.054v31.787c0,12.72,10.35,23.069,23.069,23.069H219.05c12.721,0,23.069-10.35,23.069-23.069
	v-31.787c0-4.246-3.443-7.688-7.688-7.688h-85.104v-15.932c23.935-3.438,42.832-22.681,45.746-46.777
	c9.154-3.062,15.773-11.71,15.773-21.882c0-12.721-10.348-23.069-23.069-23.069h-38.45v-16.153
	c17.53-3.573,30.76-19.108,30.76-37.678c0-4.245-3.442-7.69-7.69-7.69H135.27c3.174-8.95,11.722-15.379,21.748-15.379h15.379
	c12.721,0,23.071,10.349,23.071,23.069v30.76c0,4.248,3.443,7.69,7.69,7.69c4.246,0,7.688-3.442,7.688-7.69v-30.76
	c0-21.2-17.248-38.45-38.45-38.45h-15.379c-12.565,0-23.74,6.06-30.76,15.407c-7.021-9.347-18.196-15.407-30.76-15.407H80.117
	c-21.201,0-38.45,17.25-38.45,38.45v30.76c0,4.248,3.442,7.69,7.69,7.69c4.246,0,7.69-3.442,7.69-7.69v-30.76
	c0-12.721,10.348-23.069,23.069-23.069h15.381c10.024,0,18.571,6.429,21.746,15.379H80.117c-4.248,0-7.69,3.445-7.69,7.69
	c0,18.569,13.232,34.104,30.76,37.678v16.153h-38.45c-12.719,0-23.069,10.349-23.069,23.069c0,10.172,6.619,18.819,15.773,21.882
	c2.914,24.097,21.812,43.339,45.746,46.777v15.932H18.086C13.838,429.366,10.395,432.808,10.395,437.054z M89.126,275.559h74.263
	c-3.172,8.952-11.726,15.387-21.751,15.387h-30.76C100.852,290.946,92.298,284.511,89.126,275.559z M118.568,306.325h15.379v15.381
	h-15.379V306.325z M64.737,337.085h123.041c4.24,0,7.69,3.451,7.69,7.69c0,4.24-3.451,7.69-7.69,7.69h-34.955
	c-8.528,0-16.096,4.314-19.751,11.262c-1.336,2.539-3.947,4.117-6.813,4.117c-2.868,0-5.477-1.578-6.815-4.117
	c-3.655-6.947-11.221-11.262-19.749-11.262H64.737c-4.239,0-7.688-3.45-7.688-7.69C57.049,340.536,60.497,337.085,64.737,337.085z
	 M73.202,367.844h26.492c2.714,0,5.181,1.224,6.139,3.044c4.003,7.61,11.83,12.337,20.425,12.337c8.594,0,16.42-4.732,20.424-12.343
	c0.959-1.82,3.425-3.042,6.141-3.042h26.492c-3.573,17.53-19.108,30.766-37.677,30.766h-30.76
	C92.308,398.606,76.773,385.375,73.202,367.844z M118.568,413.985h15.379v15.381h-15.379V413.985z M25.776,444.745H226.74v24.097
	c0,4.24-3.451,7.688-7.69,7.688H33.465c-4.24,0-7.688-3.448-7.688-7.688V444.745z"/>
<path fill="#FFFFFF" d="M252.007,314.399c-3.002-3.004-7.871-3.004-10.875,0l-2.253,2.254l-2.253-2.254
	c-3.002-3.004-7.871-3.004-10.875,0c-3.002,3.002-3.002,7.873,0,10.875l2.253,2.253l-2.253,2.253c-3.002,3.003-3.002,7.871,0,10.875
	c3.002,3.002,7.873,3.004,10.875,0l2.253-2.253l2.253,2.253c3.002,3.002,7.873,3.004,10.875,0c3.004-3.004,3.004-7.872,0-10.875
	l-2.253-2.253l2.253-2.253C255.011,322.272,255.011,317.401,252.007,314.399z"/>
<path fill="#FFFFFF" d="M33.014,168.995c3.002,3.002,7.873,3.002,10.875,0l2.253-2.253l2.253,2.253
	c3.002,3.002,7.871,3.002,10.875,0c3.004-3.004,3.004-7.872,0-10.877l-2.253-2.251l2.253-2.253c3.004-3.004,3.004-7.873,0-10.875
	c-3.002-3.004-7.873-3.004-10.875,0l-2.253,2.251l-2.253-2.251c-3.002-3.004-7.871-3.004-10.875,0
	c-3.004,3.002-3.004,7.871,0,10.875l2.253,2.253l-2.253,2.251C30.01,161.123,30.01,165.991,33.014,168.995z"/>
<path fill="#FFFFFF" d="M30.508,383.608c-3.002-3.004-7.871-3.004-10.875,0l-2.253,2.253l-2.253-2.253
	c-3.002-3.004-7.871-3.004-10.875,0c-3.002,3.002-3.002,7.871,0,10.875l2.253,2.253l-2.253,2.253c-3.002,3.002-3.002,7.871,0,10.875
	c3.002,3.002,7.873,3.004,10.875,0l2.253-2.253l2.253,2.253c3.002,3.002,7.873,3.004,10.875,0c3.004-3.004,3.004-7.873,0-10.875
	l-2.253-2.253l2.253-2.253C33.512,391.479,33.512,386.61,30.508,383.608z"/>
<g>
	<g>
		<path fill="#FFFFFF" d="M0,501.328c0,5.795,4.698,10.493,10.493,10.493h491.014c5.795,0,10.493-4.698,10.493-10.493v-62.952
			c0-17.357-14.12-31.478-31.477-31.478s-31.478,14.12-31.478,31.478v10.491h-10.491c-17.357,0-31.478,14.121-31.478,31.478v10.492
			h-10.669c0-6.961,0-209.375,0-216.338h26.522c43.231,0,78.4-35.169,78.4-78.4c0-12.107-2.862-24.231-8.275-35.061l-25.417-50.831
			c-5.414-10.83-8.276-22.954-8.276-35.062C459.363,34.261,426.415,1,385.916,1c-11.226,0-21.867,2.56-31.393,7.125
			C344.711,3.455,333.915,1,322.963,1c-40.498,0-73.446,33.262-73.446,74.146c0,12.108-2.863,24.232-8.277,35.061l-25.415,50.831
			c-5.415,10.832-8.277,22.955-8.277,35.062c0,43.231,35.17,78.4,78.399,78.4h26.522v216.338H10.493
			C4.698,490.837,0,495.535,0,501.328z M421.942,478.05c0-6.207,5.052-11.258,11.258-11.258h22.515
			c6.217,0,11.257-5.041,11.257-11.257V433.02c0-6.206,5.051-11.258,11.258-11.258s11.257,5.052,11.257,11.258v56.286h-67.544
			V478.05z M333.67,23.09c-13.1,13.398-21.2,31.79-21.2,52.056c0,12.108-2.861,24.232-8.276,35.061l-25.415,50.831
			c-5.415,10.832-8.276,22.955-8.276,35.062c0,22.655,9.662,43.09,25.076,57.416h-9.631c-31.659,0-57.416-25.757-57.416-57.416
			c0-8.866,2.097-17.746,6.062-25.677l25.414-50.83c6.865-13.729,10.494-29.098,10.494-44.446c0-29.312,23.534-53.161,52.461-53.161
			C326.574,21.985,330.164,22.361,333.67,23.09z M375.424,75.145v100.578l-24.058-24.059c-4.099-4.098-10.74-4.098-14.837,0
			c-4.1,4.098-4.1,10.74,0,14.838l38.895,38.895v48.117c-9.209,0-17.271,0-26.522,0c-31.659,0-57.416-25.757-57.416-57.416
			c0-8.866,2.098-17.746,6.062-25.677l25.415-50.83c6.864-13.729,10.492-29.098,10.492-44.446c0-29.312,23.534-53.161,52.461-53.161
			c28.928,0,52.462,23.848,52.462,53.161c0,15.349,3.628,30.718,10.492,44.446l25.415,50.832c3.966,7.93,6.062,16.81,6.062,25.676
			c0,31.659-25.756,57.416-57.416,57.416h-26.522v-6.146l38.896-38.896c4.098-4.098,4.098-10.741,0-14.839
			c-4.099-4.099-10.74-4.099-14.838,0l-24.059,24.059v-54.263l38.896-38.895c4.098-4.099,4.098-10.741,0-14.839
			c-4.099-4.098-10.74-4.098-14.838,0l-24.059,24.059V75.145c0-5.794-4.698-10.492-10.492-10.492
			C380.121,64.653,375.424,69.351,375.424,75.145z M333.455,274.499c8.275,0,33.643,0,41.969,0c0,6.963,0,209.377,0,216.338h-41.969
			V274.499z"/>
	</g>
</g>
</svg>
