<?xml version="1.0" encoding="utf-8"?>
<!-- Generator: Adobe Illustrator 16.0.0, SVG Export Plug-In . SVG Version: 6.00 Build 0)  -->
<!DOCTYPE svg PUBLIC "-//W3C//DTD SVG 1.1//EN" "http://www.w3.org/Graphics/SVG/1.1/DTD/svg11.dtd">
<svg version="1.1" id="Capa_1" xmlns="http://www.w3.org/2000/svg" xmlns:xlink="http://www.w3.org/1999/xlink" x="0px" y="0px"
	 width="512px" height="512px" viewBox="0 0 512 512" enable-background="new 0 0 512 512" xml:space="preserve">
<g>
	<path fill="#FFFFFF" d="M187.72,196.39c0-16.447-6.722-28.143-19.98-34.761c-11.763-5.873-26.444-6.625-37.919-6.625
		c-11.475,0-26.155,0.753-37.918,6.625c-13.258,6.619-19.98,18.314-19.98,34.761c0,31.925,25.973,57.897,57.898,57.897
		C161.747,254.288,187.72,228.315,187.72,196.39z M129.821,172.721c33.46,0,40.183,9.057,40.183,23.669
		c0,22.156-18.026,40.181-40.183,40.181c-22.156,0-40.182-18.025-40.182-40.181C89.639,181.778,96.361,172.721,129.821,172.721z"/>
	<path fill="#FFFFFF" d="M184.674,138.87c-13.241-6.826-30.159-9.87-54.854-9.87c-14.631,0-36.087,0.94-53.417,9.07
		c-18.619,8.734-29.656,24.282-32.807,46.212c-0.337,2.35,0.261,4.691,1.684,6.591c1.423,1.9,3.5,3.131,5.852,3.469
		c0.419,0.06,0.845,0.09,1.266,0.09c4.388,0,8.167-3.277,8.79-7.622c4.086-28.438,23.97-40.037,68.632-40.037
		c37.745,0,62.378,6.754,68.551,40.374c0.771,4.223,4.444,7.288,8.734,7.288c0.536,0,1.078-0.05,1.609-0.147
		c4.818-0.884,8.02-5.524,7.136-10.345C211.894,162.39,201.697,147.647,184.674,138.87z"/>
	
		<ellipse transform="matrix(-0.7071 -0.7071 0.7071 -0.7071 130.7097 272.0857)" fill="#FFFFFF" cx="121.702" cy="108.974" rx="10.388" ry="7.261"/>
	
		<ellipse transform="matrix(0.7071 0.7071 -0.7071 0.7071 98.828 -59.8814)" fill="#FFFFFF" cx="121.701" cy="89.361" rx="10.388" ry="7.264"/>
	
		<ellipse transform="matrix(-0.7071 -0.7071 0.7071 -0.7071 158.1571 205.8179)" fill="#FFFFFF" cx="121.705" cy="70.154" rx="10.388" ry="7.261"/>
	
		<ellipse transform="matrix(0.7071 0.7071 -0.7071 0.7071 70.4844 -71.6203)" fill="#FFFFFF" cx="121.702" cy="49.278" rx="10.388" ry="7.262"/>
	
		<ellipse transform="matrix(0.7071 0.7071 -0.7071 0.7071 55.7544 -77.7241)" fill="#FFFFFF" cx="121.703" cy="28.443" rx="10.387" ry="7.262"/>
	
		<ellipse transform="matrix(-0.7071 -0.7071 0.7071 -0.7071 165.8208 286.6475)" fill="#FFFFFF" cx="142.279" cy="108.98" rx="7.261" ry="10.388"/>
	
		<ellipse transform="matrix(-0.7071 -0.7072 0.7072 -0.7071 179.672 253.1518)" fill="#FFFFFF" cx="142.271" cy="89.361" rx="7.261" ry="10.387"/>
	
		<ellipse transform="matrix(-0.7071 -0.7071 0.7071 -0.7071 193.2582 220.3627)" fill="#FFFFFF" cx="142.271" cy="70.154" rx="7.261" ry="10.388"/>
	
		<ellipse transform="matrix(0.7071 0.7072 -0.7072 0.7071 76.5158 -86.1689)" fill="#FFFFFF" cx="142.262" cy="49.269" rx="7.261" ry="10.388"/>
	
		<ellipse transform="matrix(-0.7071 0.7071 -0.7071 -0.7071 262.9798 -52.0475)" fill="#FFFFFF" cx="142.269" cy="28.441" rx="10.388" ry="7.261"/>
	<ellipse fill="#FFFFFF" cx="131.677" cy="11.056" rx="7.263" ry="10.388"/>
	
		<ellipse transform="matrix(0.5067 0.8621 -0.8621 0.5067 176.4761 -84.6846)" fill="#FFFFFF" cx="162.242" cy="111.877" rx="10.387" ry="7.263"/>
	
		<ellipse transform="matrix(0.5067 0.8621 -0.8621 0.5067 162.5416 -98.3084)" fill="#FFFFFF" cx="167.18" cy="92.886" rx="10.389" ry="7.261"/>
	
		<ellipse transform="matrix(0.5067 0.8621 -0.8621 0.5067 148.9258 -111.6316)" fill="#FFFFFF" cx="172.005" cy="74.313" rx="10.388" ry="7.262"/>
	
		<ellipse transform="matrix(0.5068 0.8621 -0.8621 0.5068 134.0535 -126.134)" fill="#FFFFFF" cx="177.257" cy="54.084" rx="10.389" ry="7.263"/>
	
		<ellipse transform="matrix(0.5067 0.8621 -0.8621 0.5067 119.2744 -140.5891)" fill="#FFFFFF" cx="182.488" cy="33.931" rx="10.387" ry="7.262"/>
	
		<ellipse transform="matrix(-0.5068 -0.8621 0.8621 -0.5068 173.5445 333.3688)" fill="#FFFFFF" cx="182.133" cy="117.042" rx="7.263" ry="10.388"/>
	
		<ellipse transform="matrix(0.8621 -0.5067 0.5067 0.8621 -23.8966 108.3187)" fill="#FFFFFF" cx="187.082" cy="98.068" rx="10.388" ry="7.262"/>
	
		<ellipse transform="matrix(-0.8621 0.5067 -0.5067 -0.8621 397.6186 50.7461)" fill="#FFFFFF" cx="191.905" cy="79.475" rx="10.387" ry="7.262"/>
	
		<ellipse transform="matrix(0.5067 0.8621 -0.8621 0.5067 148.3556 -140.7289)" fill="#FFFFFF" cx="197.152" cy="59.275" rx="7.261" ry="10.387"/>
	
		<ellipse transform="matrix(-0.8621 0.5067 -0.5067 -0.8621 396.6664 -29.7213)" fill="#FFFFFF" cx="202.377" cy="39.112" rx="10.387" ry="7.263"/>
	
		<ellipse transform="matrix(-0.2513 0.9679 -0.9679 -0.2513 264.8878 -165.6512)" fill="#FFFFFF" cx="196.512" cy="19.623" rx="10.389" ry="7.262"/>
	
		<ellipse transform="matrix(0.3608 0.9326 -0.9326 0.3608 248.7705 -103.3352)" fill="#FFFFFF" cx="199.772" cy="129.82" rx="10.388" ry="7.262"/>
	
		<ellipse transform="matrix(0.3608 0.9326 -0.9326 0.3608 237.1222 -122.2174)" fill="#FFFFFF" cx="207.723" cy="111.881" rx="10.388" ry="7.262"/>
	
		<ellipse transform="matrix(-0.9326 0.3608 -0.3608 -0.9326 450.4383 104.483)" fill="#FFFFFF" cx="215.467" cy="94.285" rx="7.262" ry="10.389"/>
	
		<ellipse transform="matrix(0.3608 0.9326 -0.9326 0.3608 213.2603 -160.7475)" fill="#FFFFFF" cx="223.904" cy="75.21" rx="10.386" ry="7.261"/>
	
		<ellipse transform="matrix(0.3608 0.9326 -0.9326 0.3608 200.8857 -180.7824)" fill="#FFFFFF" cx="232.333" cy="56.165" rx="10.386" ry="7.259"/>
	
		<ellipse transform="matrix(-0.3608 -0.9326 0.9326 -0.3608 168.6135 391.7981)" fill="#FFFFFF" cx="218.571" cy="138.117" rx="7.262" ry="10.387"/>
	
		<ellipse transform="matrix(-0.3608 -0.9326 0.9326 -0.3608 196.1473 374.85)" fill="#FFFFFF" cx="226.531" cy="120.208" rx="7.262" ry="10.387"/>
	
		<ellipse transform="matrix(-0.3608 -0.9326 0.9326 -0.3608 223.0924 358.1687)" fill="#FFFFFF" cx="234.283" cy="102.635" rx="7.261" ry="10.387"/>
	
		<ellipse transform="matrix(-0.3609 -0.9326 0.9326 -0.3609 252.4301 340.0422)" fill="#FFFFFF" cx="242.728" cy="83.528" rx="7.261" ry="10.388"/>
	
		<ellipse transform="matrix(-0.3608 -0.9326 0.9326 -0.3608 281.6489 321.9586)" fill="#FFFFFF" cx="251.156" cy="64.461" rx="7.262" ry="10.388"/>
	
		<ellipse transform="matrix(-0.4044 0.9146 -0.9146 -0.4044 389.4913 -165.0435)" fill="#FFFFFF" cx="248.485" cy="44.299" rx="10.39" ry="7.263"/>
	
		<ellipse transform="matrix(-0.3608 0.9326 -0.9326 -0.3608 209.3847 116.1549)" fill="#FFFFFF" cx="64.888" cy="129.829" rx="10.387" ry="7.261"/>
	
		<ellipse transform="matrix(-0.9326 -0.3608 0.3608 -0.9326 69.7341 236.7368)" fill="#FFFFFF" cx="56.967" cy="111.859" rx="7.261" ry="10.389"/>
	
		<ellipse transform="matrix(-0.9326 -0.3609 0.3609 -0.9326 61.0365 200.0299)" fill="#FFFFFF" cx="49.194" cy="94.316" rx="7.261" ry="10.388"/>
	
		<ellipse transform="matrix(-0.9326 -0.3608 0.3608 -0.9326 51.6202 160.0678)" fill="#FFFFFF" cx="40.752" cy="75.215" rx="7.262" ry="10.388"/>
	
		<ellipse transform="matrix(-0.3608 0.9326 -0.9326 -0.3608 96.3755 46.2865)" fill="#FFFFFF" cx="32.327" cy="56.168" rx="10.387" ry="7.261"/>
	
		<ellipse transform="matrix(0.9326 0.3608 -0.3608 0.9326 52.9415 -7.3294)" fill="#FFFFFF" cx="46.101" cy="138.128" rx="10.388" ry="7.263"/>
	
		<ellipse transform="matrix(0.9327 0.3608 -0.3608 0.9327 45.935 -5.6743)" fill="#FFFFFF" cx="38.166" cy="120.196" rx="10.387" ry="7.263"/>
	
		<ellipse transform="matrix(0.9326 0.3608 -0.3608 0.9326 39.0762 -4.0479)" fill="#FFFFFF" cx="30.379" cy="102.631" rx="10.387" ry="7.262"/>
	
		<ellipse transform="matrix(0.9326 0.3608 -0.3608 0.9326 31.6186 -2.2862)" fill="#FFFFFF" cx="21.932" cy="83.531" rx="10.387" ry="7.262"/>
	
		<ellipse transform="matrix(0.9326 0.3608 -0.3608 0.9326 24.1757 -0.5381)" fill="#FFFFFF" cx="13.529" cy="64.48" rx="10.388" ry="7.261"/>
	
		<ellipse transform="matrix(0.4044 0.9146 -0.9146 0.4044 50.1457 11.5902)" fill="#FFFFFF" cx="16.175" cy="44.294" rx="10.39" ry="7.263"/>
	
		<ellipse transform="matrix(-0.8621 -0.5067 0.5067 -0.8621 132.8027 259.911)" fill="#FFFFFF" cx="101.765" cy="111.886" rx="7.261" ry="10.387"/>
	
		<ellipse transform="matrix(-0.8621 -0.5067 0.5067 -0.8621 133.2497 222.0713)" fill="#FFFFFF" cx="96.836" cy="92.908" rx="7.261" ry="10.388"/>
	
		<ellipse transform="matrix(-0.8621 -0.5067 0.5067 -0.8621 133.6589 185.0024)" fill="#FFFFFF" cx="92" cy="74.316" rx="7.263" ry="10.387"/>
	
		<ellipse transform="matrix(-0.8621 -0.5067 0.5067 -0.8621 134.1075 144.7003)" fill="#FFFFFF" cx="86.742" cy="54.103" rx="7.263" ry="10.388"/>
	
		<ellipse transform="matrix(-0.5067 0.8621 -0.8621 -0.5067 152.0833 -19.1362)" fill="#FFFFFF" cx="81.516" cy="33.942" rx="10.388" ry="7.261"/>
	
		<ellipse transform="matrix(-0.5067 0.8621 -0.8621 -0.5067 224.2458 105.829)" fill="#FFFFFF" cx="81.847" cy="117.068" rx="7.262" ry="10.386"/>
	
		<ellipse transform="matrix(-0.8621 -0.5067 0.5067 -0.8621 93.5481 221.5836)" fill="#FFFFFF" cx="76.92" cy="98.065" rx="10.388" ry="7.261"/>
	
		<ellipse transform="matrix(0.5067 -0.8621 0.8621 0.5067 -32.968 101.3531)" fill="#FFFFFF" cx="72.087" cy="79.487" rx="7.261" ry="10.388"/>
	
		<ellipse transform="matrix(0.5067 -0.8621 0.8621 0.5067 -18.1313 86.8605)" fill="#FFFFFF" cx="66.839" cy="59.275" rx="7.262" ry="10.387"/>
	
		<ellipse transform="matrix(-0.5067 0.8621 -0.8621 -0.5067 126.5464 5.8339)" fill="#FFFFFF" cx="61.604" cy="39.119" rx="7.261" ry="10.387"/>
	
		<ellipse transform="matrix(0.2513 0.9679 -0.9679 0.2513 69.5124 -50.6255)" fill="#FFFFFF" cx="67.48" cy="19.619" rx="10.389" ry="7.262"/>
	<path fill="#FFFFFF" d="M385.427,245.961c30.882,0,56.006-26.667,56.006-59.444c0-16.745-6.441-28.666-19.145-35.432
		c-11.551-6.152-26.569-6.863-36.861-6.863c-10.293,0-25.312,0.711-36.864,6.863c-12.704,6.766-19.146,18.687-19.146,35.432
		C329.417,219.295,354.543,245.961,385.427,245.961z M385.427,161.238c32.469,0,38.991,9.673,38.991,25.279
		c0,23.394-17.491,42.427-38.991,42.427c-21.502,0-38.995-19.033-38.995-42.427C346.432,170.911,352.955,161.238,385.427,161.238z"
		/>
	<path fill="#FFFFFF" d="M478.127,221.93c-1.988-0.719-4.062-1.083-6.162-1.083c-3.019,0-5.849,0.745-8.231,2.09
		c8.837-18.495,4.062-44.146,3.339-47.699c-2.857-19.996-12.491-34.488-28.637-43.076c-12.739-6.777-29.283-9.934-52.063-9.934
		c-0.28,0-0.558,0.016-0.831,0.042c-0.28-0.027-0.563-0.043-0.851-0.043c-22.78,0-39.325,3.156-52.066,9.934
		c-16.144,8.588-25.777,23.081-28.636,43.076c-0.726,3.554-5.505,29.196,3.34,47.701c-2.383-1.345-5.214-2.091-8.233-2.091
		c-2.1,0-4.172,0.364-6.164,1.083c-7.007,2.538-12.966,10.112-10.485,21.31c1.974,8.91,8.363,15.482,17.093,17.584
		c1.856,0.447,3.765,0.675,5.671,0.675c6.937,0,13.327-2.921,17.532-8.014c3.159-3.825,12.772-15.466,0.898-36.85
		c-7.584-13.653-2.628-37.845-2.577-38.085l0.11-0.617c3.788-27.213,22.19-38.312,63.518-38.312c0.28,0,0.558-0.016,0.831-0.042
		c0.28,0.027,0.563,0.043,0.851,0.043c41.325,0,59.728,11.1,63.516,38.312l0.108,0.612c0.051,0.243,5.016,24.426-2.573,38.093
		c-2.938,5.29-11.878,21.387,0.897,36.85c4.207,5.091,10.597,8.011,17.532,8.011c1.906,0,3.813-0.227,5.666-0.673
		c8.734-2.101,15.126-8.675,17.097-17.584C491.097,232.045,485.137,224.471,478.127,221.93z M461.929,240.322
		c1.235,0.638,2.618,0.975,4.001,0.975c2.179,0,4.222-0.805,5.783-2.203c-0.021,0.119-0.047,0.246-0.077,0.384
		c-0.532,2.404-1.941,3.898-4.185,4.439c-2.157,0.519-4.589-0.137-5.722-1.509c-1-1.21-1.9-2.486-2.37-4.109
		C460.06,239.109,460.922,239.802,461.929,240.322z M309.33,242.409c-1.133,1.372-3.568,2.026-5.718,1.508
		c-2.246-0.542-3.655-2.036-4.188-4.441c-0.031-0.143-0.058-0.275-0.079-0.397c1.563,1.393,3.605,2.193,5.784,2.193
		c1.378,0,2.757-0.335,3.991-0.972c1.019-0.527,1.89-1.229,2.595-2.051C311.249,239.896,310.34,241.186,309.33,242.409z"/>
	
		<ellipse transform="matrix(-0.7071 -0.7071 0.7071 -0.7071 565.8209 447.2021)" fill="#FFFFFF" cx="375.522" cy="106.424" rx="9.985" ry="6.98"/>
	
		<ellipse transform="matrix(0.7071 -0.7071 0.7071 0.7071 48.0851 291.2013)" fill="#FFFFFF" cx="375.529" cy="87.561" rx="6.98" ry="9.987"/>
	
		<ellipse transform="matrix(0.7071 0.7071 -0.7071 0.7071 158.8463 -245.2961)" fill="#FFFFFF" cx="375.529" cy="69.101" rx="9.984" ry="6.982"/>
	
		<ellipse transform="matrix(0.7071 -0.7071 0.7071 0.7071 75.3212 279.9006)" fill="#FFFFFF" cx="375.531" cy="49.03" rx="6.98" ry="9.984"/>
	
		<ellipse transform="matrix(0.7071 0.7071 -0.7071 0.7071 130.4651 -257.0319)" fill="#FFFFFF" cx="375.52" cy="28.981" rx="9.987" ry="6.979"/>
	
		<ellipse transform="matrix(0.7071 0.7072 -0.7072 0.7071 191.0435 -248.3588)" fill="#FFFFFF" cx="395.286" cy="106.406" rx="6.98" ry="9.985"/>
	
		<ellipse transform="matrix(-0.7071 0.7071 -0.7071 -0.7071 736.679 -130.0828)" fill="#FFFFFF" cx="395.282" cy="87.541" rx="9.984" ry="6.98"/>
	
		<ellipse transform="matrix(0.7071 0.7071 -0.7071 0.7071 164.6144 -259.2681)" fill="#FFFFFF" cx="395.282" cy="69.08" rx="6.98" ry="9.984"/>
	
		<ellipse transform="matrix(0.7071 -0.7071 0.7071 0.7071 81.1221 293.8725)" fill="#FFFFFF" cx="395.288" cy="49.016" rx="9.983" ry="6.979"/>
	
		<ellipse transform="matrix(-0.7071 0.7071 -0.7071 -0.7071 695.3181 -230.0013)" fill="#FFFFFF" cx="395.293" cy="29.001" rx="9.986" ry="6.979"/>
	<ellipse fill="#FFFFFF" cx="385.118" cy="12.275" rx="6.979" ry="9.984"/>
	
		<ellipse transform="matrix(0.5067 0.8621 -0.8621 0.5067 298.6129 -303.4651)" fill="#FFFFFF" cx="414.5" cy="109.22" rx="9.985" ry="6.981"/>
	
		<ellipse transform="matrix(0.5067 0.8621 -0.8621 0.5067 285.2149 -316.5871)" fill="#FFFFFF" cx="419.242" cy="90.928" rx="9.986" ry="6.979"/>
	
		<ellipse transform="matrix(0.5067 0.8621 -0.8621 0.5067 272.0853 -329.3702)" fill="#FFFFFF" cx="423.872" cy="73.084" rx="9.985" ry="6.977"/>
	
		<ellipse transform="matrix(0.5067 0.8621 -0.8621 0.5067 257.857 -343.3152)" fill="#FFFFFF" cx="428.917" cy="53.657" rx="9.985" ry="6.979"/>
	
		<ellipse transform="matrix(0.5067 0.8621 -0.8621 0.5067 243.6076 -357.1921)" fill="#FFFFFF" cx="433.94" cy="34.283" rx="9.984" ry="6.979"/>
	
		<ellipse transform="matrix(-0.5067 -0.8621 0.8621 -0.5067 554.9106 545.886)" fill="#FFFFFF" cx="433.632" cy="114.184" rx="6.979" ry="9.984"/>
	
		<ellipse transform="matrix(0.8621 -0.5068 0.5068 0.8621 11.8357 235.3636)" fill="#FFFFFF" cx="438.327" cy="95.937" rx="9.984" ry="6.98"/>
	
		<ellipse transform="matrix(-0.8622 0.5066 -0.5066 -0.8622 864.4363 -79.0816)" fill="#FFFFFF" cx="442.974" cy="78.035" rx="9.986" ry="6.98"/>
	
		<ellipse transform="matrix(0.5067 0.8621 -0.8621 0.5067 271.5674 -357.3701)" fill="#FFFFFF" cx="448.069" cy="58.622" rx="6.981" ry="9.984"/>
	
		<ellipse transform="matrix(-0.8621 0.5068 -0.5068 -0.8621 863.5446 -156.4627)" fill="#FFFFFF" cx="453.063" cy="39.277" rx="9.984" ry="6.98"/>
	
		<ellipse transform="matrix(-0.2514 0.9679 -0.9679 -0.2514 579.7502 -407.3796)" fill="#FFFFFF" cx="447.422" cy="20.518" rx="9.986" ry="6.98"/>
	
		<ellipse transform="matrix(0.3608 0.9326 -0.9326 0.3608 405.92 -339.4031)" fill="#FFFFFF" cx="450.568" cy="126.433" rx="9.983" ry="6.979"/>
	
		<ellipse transform="matrix(0.3608 0.9326 -0.9326 0.3608 394.6843 -357.5897)" fill="#FFFFFF" cx="458.216" cy="109.141" rx="9.985" ry="6.981"/>
	
		<ellipse transform="matrix(-0.9326 0.3608 -0.3608 -0.9326 933.2444 10.36)" fill="#FFFFFF" cx="465.655" cy="92.302" rx="6.978" ry="9.983"/>
	
		<ellipse transform="matrix(0.3608 0.9326 -0.9326 0.3608 371.794 -394.5946)" fill="#FFFFFF" cx="473.772" cy="73.944" rx="9.983" ry="6.979"/>
	
		<ellipse transform="matrix(0.3608 0.9326 -0.9326 0.3608 359.9125 -413.8867)" fill="#FFFFFF" cx="481.906" cy="55.63" rx="9.985" ry="6.981"/>
	
		<ellipse transform="matrix(0.3608 0.9327 -0.9327 0.3608 424.9717 -351.1801)" fill="#FFFFFF" cx="468.672" cy="134.427" rx="6.98" ry="9.985"/>
	
		<ellipse transform="matrix(0.9327 -0.3607 0.3607 0.9327 -10.1855 179.6669)" fill="#FFFFFF" cx="476.259" cy="117.122" rx="9.985" ry="6.982"/>
	
		<ellipse transform="matrix(-0.3608 -0.9326 0.9326 -0.3608 564.7568 587.6627)" fill="#FFFFFF" cx="483.751" cy="100.308" rx="6.98" ry="9.985"/>
	
		<ellipse transform="matrix(-0.3609 -0.9326 0.9326 -0.3609 592.9587 570.2307)" fill="#FFFFFF" cx="491.875" cy="81.931" rx="6.982" ry="9.983"/>
	
		<ellipse transform="matrix(0.9326 -0.3608 0.3608 0.9326 10.7153 184.6888)" fill="#FFFFFF" cx="499.959" cy="63.648" rx="9.985" ry="6.979"/>
	
		<ellipse transform="matrix(-0.4044 0.9146 -0.9146 -0.4044 738.9918 -392.7566)" fill="#FFFFFF" cx="497.383" cy="44.247" rx="9.987" ry="6.981"/>
	
		<ellipse transform="matrix(-0.3608 0.9326 -0.9326 -0.3608 554.6647 -127.2945)" fill="#FFFFFF" cx="320.953" cy="126.424" rx="9.985" ry="6.98"/>
	
		<ellipse transform="matrix(0.9326 0.3608 -0.3608 0.9326 60.4924 -105.6996)" fill="#FFFFFF" cx="313.298" cy="109.142" rx="6.98" ry="9.985"/>
	
		<ellipse transform="matrix(-0.9326 -0.3608 0.3608 -0.9326 557.7903 288.7364)" fill="#FFFFFF" cx="305.849" cy="92.298" rx="6.98" ry="9.984"/>
	
		<ellipse transform="matrix(-0.9326 -0.3608 0.3608 -0.9326 548.7384 250.3391)" fill="#FFFFFF" cx="297.739" cy="73.943" rx="6.981" ry="9.983"/>
	
		<ellipse transform="matrix(-0.3609 0.9326 -0.9326 -0.3609 445.975 -194.4271)" fill="#FFFFFF" cx="289.61" cy="55.605" rx="9.985" ry="6.979"/>
	
		<ellipse transform="matrix(-0.3608 0.9326 -0.9326 -0.3608 537.5086 -99.5077)" fill="#FFFFFF" cx="302.853" cy="134.435" rx="6.98" ry="9.983"/>
	
		<ellipse transform="matrix(0.9326 0.3608 -0.3608 0.9326 62.165 -98.624)" fill="#FFFFFF" cx="295.217" cy="117.178" rx="9.985" ry="6.981"/>
	
		<ellipse transform="matrix(0.9326 0.3608 -0.3608 0.9326 55.5839 -97.0722)" fill="#FFFFFF" cx="287.754" cy="100.319" rx="9.985" ry="6.98"/>
	
		<ellipse transform="matrix(0.9326 0.3609 -0.3609 0.9326 48.4273 -95.4068)" fill="#FFFFFF" cx="279.649" cy="81.952" rx="9.983" ry="6.981"/>
	
		<ellipse transform="matrix(0.9327 0.3607 -0.3607 0.9327 41.2248 -93.6666)" fill="#FFFFFF" cx="271.542" cy="63.606" rx="9.985" ry="6.98"/>
	
		<ellipse transform="matrix(0.4044 0.9146 -0.9146 0.4044 203.6942 -224.3441)" fill="#FFFFFF" cx="274.096" cy="44.222" rx="9.986" ry="6.978"/>
	
		<ellipse transform="matrix(-0.8621 -0.5067 0.5067 -0.8621 608.2643 383.9378)" fill="#FFFFFF" cx="356.374" cy="109.204" rx="6.98" ry="9.986"/>
	
		<ellipse transform="matrix(-0.8622 -0.5066 0.5066 -0.8622 608.6292 347.4979)" fill="#FFFFFF" cx="351.585" cy="90.956" rx="6.981" ry="9.986"/>
	
		<ellipse transform="matrix(-0.8621 -0.5067 0.5067 -0.8621 609.1329 311.9031)" fill="#FFFFFF" cx="347.006" cy="73.07" rx="6.981" ry="9.983"/>
	
		<ellipse transform="matrix(-0.8622 -0.5066 0.5066 -0.8622 609.6198 273.1546)" fill="#FFFFFF" cx="341.963" cy="53.661" rx="6.981" ry="9.986"/>
	
		<ellipse transform="matrix(-0.5067 0.8621 -0.8621 -0.5067 537.1487 -238.8529)" fill="#FFFFFF" cx="336.909" cy="34.249" rx="9.984" ry="6.981"/>
	
		<ellipse transform="matrix(-0.5067 0.8621 -0.8621 -0.5067 606.5472 -118.682)" fill="#FFFFFF" cx="337.227" cy="114.186" rx="6.979" ry="9.982"/>
	
		<ellipse transform="matrix(-0.8621 -0.5067 0.5067 -0.8621 570.5116 347.0854)" fill="#FFFFFF" cx="332.48" cy="95.919" rx="9.984" ry="6.982"/>
	
		<ellipse transform="matrix(0.5067 -0.8621 0.8621 0.5067 94.4399 321.166)" fill="#FFFFFF" cx="327.864" cy="78.059" rx="6.979" ry="9.986"/>
	
		<ellipse transform="matrix(0.5067 -0.8621 0.8621 0.5067 108.6758 307.1982)" fill="#FFFFFF" cx="322.794" cy="58.629" rx="6.981" ry="9.985"/>
	
		<ellipse transform="matrix(-0.5067 0.8621 -0.8621 -0.5067 512.6007 -214.8444)" fill="#FFFFFF" cx="317.767" cy="39.232" rx="6.979" ry="9.985"/>
	
		<ellipse transform="matrix(0.2513 0.9679 -0.9679 0.2513 261.9897 -297.675)" fill="#FFFFFF" cx="323.414" cy="20.515" rx="9.986" ry="6.981"/>
	<path fill="#FFFFFF" d="M155.484,257.566H101.34c-26.491,0-48.043,21.555-48.043,48.048v153.262
		c0,26.492,21.552,48.046,48.043,48.046h54.145c26.492,0,48.044-21.555,48.044-48.047V305.614
		C203.528,279.121,181.976,257.566,155.484,257.566z M185.152,458.876c0,16.359-13.309,29.668-29.667,29.668H101.34
		c-16.358,0-29.667-13.309-29.667-29.668v-92.129h113.479V458.876z M185.152,348.37H71.673v-42.755
		c0-16.359,13.309-29.671,29.667-29.672h54.145c16.358,0,29.667,13.312,29.667,29.671V348.37z"/>
	<path fill="#FFFFFF" d="M455.148,355.049v-50.664c0-26.63-21.663-48.295-48.292-48.295h-42.198
		c-26.629,0-48.294,21.665-48.294,48.295v50.708c-2.195,6.292-11.073,32.164-18.381,59.758c-17.854,67.425-9.046,79.915-5.73,84.618
		c3.389,4.807,8.479,7.453,14.334,7.453h159.812c5.856,0,10.935-2.648,14.3-7.458c5.568-7.969,9.876-24.721-6.372-84.011
		C466.672,387.52,457.439,361.415,455.148,355.049z M334.744,304.384c0-16.494,13.419-29.915,29.913-29.915h42.198
		c16.493,0,29.911,13.421,29.911,29.915l-0.001,43.085H334.744V304.384z M465.849,488.542l-158.786-0.002
		c-1.467-2.628-5.458-15.544,8.671-68.922c5.934-22.42,12.919-43.643,16.364-53.769h107.378
		c3.554,10.128,10.782,31.409,16.964,53.883C470.994,472.649,467.146,485.924,465.849,488.542z"/>
</g>
</svg>
